<svg xmlns="http://www.w3.org/2000/svg" xmlnsXlink="http://www.w3.org/1999/xlink" width="500" zoomAndPan="magnify" viewBox="0 0 375 374.999991" height="500" preserveAspectRatio="xMidYMid meet" version="1.0"><defs><clipPath id="4eb7baf960"><path d="M 276 214 L 375 214 L 375 313 L 276 313 Z M 276 214 " clip-rule="nonzero"/></clipPath><clipPath id="0404db12ce"><path d="M 387.730469 233.972656 L 355.21875 325.980469 L 263.207031 293.46875 L 295.71875 201.460938 Z M 387.730469 233.972656 " clip-rule="nonzero"/></clipPath><clipPath id="473449b686"><path d="M 371.472656 279.976562 C 380.453125 254.566406 367.132812 226.691406 341.726562 217.714844 C 316.316406 208.738281 288.441406 222.054688 279.464844 247.464844 C 270.484375 272.871094 283.804688 300.746094 309.214844 309.726562 C 334.621094 318.703125 362.496094 305.382812 371.472656 279.976562 Z M 371.472656 279.976562 " clip-rule="nonzero"/></clipPath><clipPath id="249b6d1861"><path d="M 276 214 L 375 214 L 375 313 L 276 313 Z M 276 214 " clip-rule="nonzero"/></clipPath><clipPath id="aa5c03cf9d"><path d="M 387.730469 233.972656 L 355.246094 325.902344 L 263.316406 293.417969 L 295.800781 201.488281 Z M 387.730469 233.972656 " clip-rule="nonzero"/></clipPath><clipPath id="7ee7a89925"><path d="M 387.730469 233.972656 L 355.21875 325.976562 L 263.210938 293.46875 L 295.722656 201.460938 Z M 387.730469 233.972656 " clip-rule="nonzero"/></clipPath><clipPath id="db407fa6da"><path d="M 371.476562 279.972656 C 380.453125 254.566406 367.132812 226.691406 341.726562 217.714844 C 316.320312 208.738281 288.445312 222.058594 279.46875 247.464844 C 270.488281 272.871094 283.808594 300.746094 309.214844 309.722656 C 334.625 318.699219 362.496094 305.382812 371.476562 279.972656 Z M 371.476562 279.972656 " clip-rule="nonzero"/></clipPath><clipPath id="48e8110397"><path d="M 319 277 L 331 277 L 331 289 L 319 289 Z M 319 277 " clip-rule="nonzero"/></clipPath><clipPath id="6fd9d07f40"><path d="M 332.09375 279.277344 L 328.285156 290.054688 L 317.507812 286.246094 L 321.316406 275.46875 Z M 332.09375 279.277344 " clip-rule="nonzero"/></clipPath><clipPath id="cfb905b34f"><path d="M 330.191406 284.664062 C 331.242188 281.6875 329.683594 278.421875 326.707031 277.371094 C 323.730469 276.320312 320.464844 277.878906 319.414062 280.855469 C 318.363281 283.832031 319.921875 287.097656 322.898438 288.148438 C 325.875 289.199219 329.140625 287.640625 330.191406 284.664062 Z M 330.191406 284.664062 " clip-rule="nonzero"/></clipPath><clipPath id="79a22f9b15"><path d="M 280.515625 369.296875 L 287.414062 369.296875 L 287.414062 375 L 280.515625 375 Z M 280.515625 369.296875 " clip-rule="nonzero"/></clipPath><clipPath id="f2fa03f463"><path d="M 283.964844 369.296875 C 282.0625 369.296875 280.515625 370.84375 280.515625 372.746094 C 280.515625 374.648438 282.0625 376.195312 283.964844 376.195312 C 285.871094 376.195312 287.414062 374.648438 287.414062 372.746094 C 287.414062 370.84375 285.871094 369.296875 283.964844 369.296875 Z M 283.964844 369.296875 " clip-rule="nonzero"/></clipPath><clipPath id="76663d5a8e"><path d="M 51.488281 367.503906 L 59.125 367.503906 L 59.125 375 L 51.488281 375 Z M 51.488281 367.503906 " clip-rule="nonzero"/></clipPath><clipPath id="867adc2dd1"><path d="M 55.304688 367.503906 C 53.195312 367.503906 51.488281 369.214844 51.488281 371.324219 C 51.488281 373.433594 53.195312 375.140625 55.304688 375.140625 C 57.414062 375.140625 59.125 373.433594 59.125 371.324219 C 59.125 369.214844 57.414062 367.503906 55.304688 367.503906 Z M 55.304688 367.503906 " clip-rule="nonzero"/></clipPath><clipPath id="766a90897d"><path d="M 169.46875 202.359375 L 177.023438 202.359375 L 177.023438 209.914062 L 169.46875 209.914062 Z M 169.46875 202.359375 " clip-rule="nonzero"/></clipPath><clipPath id="f387efdf71"><path d="M 173.246094 202.359375 C 171.160156 202.359375 169.46875 204.050781 169.46875 206.136719 C 169.46875 208.222656 171.160156 209.914062 173.246094 209.914062 C 175.332031 209.914062 177.023438 208.222656 177.023438 206.136719 C 177.023438 204.050781 175.332031 202.359375 173.246094 202.359375 Z M 173.246094 202.359375 " clip-rule="nonzero"/></clipPath></defs><path stroke-linecap="butt" transform="matrix(-0.688008, -0.298572, 0.298572, -0.688008, 281.804372, 254.70643)" fill="none" stroke-linejoin="miter" d="M 0.00291076 3.500957 L 159.242327 3.498854 " stroke="#000000" stroke-width="7" stroke-opacity="1" stroke-miterlimit="4"/><path stroke-linecap="butt" transform="matrix(0.75, 0, 0, 0.75, 282.856217, 369.749976)" fill="none" stroke-linejoin="miter" d="M -0.000997834 3.500033 L 49.806297 3.500033 " stroke="#000000" stroke-width="7" stroke-opacity="1" stroke-miterlimit="4"/><g clip-path="url(#4eb7baf960)"><g clip-path="url(#0404db12ce)"><g clip-path="url(#473449b686)"><path fill="#ffffff" d="M 387.730469 233.972656 L 355.21875 325.980469 L 263.207031 293.46875 L 295.71875 201.460938 Z M 387.730469 233.972656 " fill-opacity="1" fill-rule="nonzero"/></g></g></g><g clip-path="url(#249b6d1861)"><g clip-path="url(#aa5c03cf9d)"><g clip-path="url(#7ee7a89925)"><g clip-path="url(#db407fa6da)"><path stroke-linecap="butt" transform="matrix(-0.24987, 0.707153, -0.707153, -0.24987, 387.730028, 233.970892)" fill="none" stroke-linejoin="miter" d="M 65.05161 -0.00138896 C 29.124366 -0.00057019 -0.00192116 29.127651 -0.0011024 65.054896 C -0.000283631 100.98214 29.127938 130.108427 65.055182 130.107608 C 100.984162 130.1117 130.110449 100.983479 130.10963 65.056234 C 130.107076 29.124079 100.9855 0.000967852 65.05161 -0.00138896 Z M 65.05161 -0.00138896 " stroke="#000000" stroke-width="14" stroke-opacity="1" stroke-miterlimit="4"/></g></g></g></g><g clip-path="url(#48e8110397)"><g clip-path="url(#6fd9d07f40)"><g clip-path="url(#cfb905b34f)"><path fill="#000000" d="M 332.09375 279.277344 L 328.285156 290.054688 L 317.507812 286.246094 L 321.316406 275.46875 Z M 332.09375 279.277344 " fill-opacity="1" fill-rule="nonzero"/></g></g></g><path stroke-linecap="butt" transform="matrix(-0.24987, 0.707153, -0.707153, -0.24987, 311.68976, 310.606064)" fill="none" stroke-linejoin="miter" d="M -0.00137311 3.500318 L 30.684243 3.5011 " stroke="#000000" stroke-width="7" stroke-opacity="1" stroke-miterlimit="4"/><path stroke-linecap="butt" transform="matrix(0.75, 0, 0, 0.75, 54.383456, 369.749976)" fill="none" stroke-linejoin="miter" d="M -0.000858172 3.500033 L 49.806437 3.500033 " stroke="#000000" stroke-width="7" stroke-opacity="1" stroke-miterlimit="4"/><g clip-path="url(#79a22f9b15)"><g clip-path="url(#f2fa03f463)"><path fill="#000000" d="M 280.515625 369.296875 L 287.414062 369.296875 L 287.414062 376.195312 L 280.515625 376.195312 Z M 280.515625 369.296875 " fill-opacity="1" fill-rule="nonzero"/></g></g><path stroke-linecap="butt" transform="matrix(-0.434284, 0.611472, -0.611472, -0.434284, 174.932439, 206.118399)" fill="none" stroke-linejoin="miter" d="M -0.00134026 3.499839 C 69.113583 3.500051 159.998382 3.498331 272.663338 3.500156 " stroke="#000000" stroke-width="7" stroke-opacity="1" stroke-miterlimit="4"/><path stroke-linecap="butt" transform="matrix(0.742509, 0.105739, -0.105739, 0.742509, 203.293203, 174.119285)" fill="none" stroke-linejoin="miter" d="M 3.437037 86.533209 C 24.891275 -24.180706 61.943678 -24.180583 114.600135 86.537999 " stroke="#000000" stroke-width="7" stroke-opacity="1" stroke-miterlimit="4"/><path stroke-linecap="butt" transform="matrix(0.165371, 0.731541, -0.731541, 0.165371, 206.822583, 222.063252)" fill="none" stroke-linejoin="miter" d="M -0.00199203 3.500193 L 28.384458 3.498803 " stroke="#000000" stroke-width="7" stroke-opacity="1" stroke-miterlimit="4"/><path stroke-linecap="butt" transform="matrix(-0.679363, 0.317752, -0.317752, -0.679363, 205.367012, 225.018163)" fill="none" stroke-linejoin="miter" d="M 0.00130902 3.500271 L 26.605662 3.500931 " stroke="#000000" stroke-width="7" stroke-opacity="1" stroke-miterlimit="4"/><path stroke-linecap="butt" transform="matrix(-0.411371, -0.627115, 0.627115, -0.411371, 280.655494, 373.811635)" fill="none" stroke-linejoin="miter" d="M -0.0000247994 3.501841 C 67.815387 3.500037 156.99316 3.502543 267.539006 3.500651 " stroke="#000000" stroke-width="7" stroke-opacity="1" stroke-miterlimit="4"/><path stroke-linecap="butt" transform="matrix(0.628526, 0.409213, -0.409213, 0.628526, 207.391236, 201.901261)" fill="none" stroke-linejoin="miter" d="M 3.466759 2.032937 C 15.553357 89.861353 52.938568 89.864985 115.621074 2.032261 " stroke="#000000" stroke-width="7" stroke-opacity="1" stroke-miterlimit="4"/><path stroke-linecap="butt" transform="matrix(-0.306036, -0.68472, 0.68472, -0.306036, 202.21442, 222.762715)" fill="none" stroke-linejoin="miter" d="M 0.00107278 3.498193 L 28.388522 3.498326 " stroke="#000000" stroke-width="7" stroke-opacity="1" stroke-miterlimit="4"/><path stroke-linecap="butt" transform="matrix(0.603588, -0.445176, 0.445176, 0.603588, 203.060293, 219.579096)" fill="none" stroke-linejoin="miter" d="M -0.0011162 3.498768 L 26.6081 3.502149 " stroke="#000000" stroke-width="7" stroke-opacity="1" stroke-miterlimit="4"/><g clip-path="url(#76663d5a8e)"><g clip-path="url(#867adc2dd1)"><path fill="#000000" d="M 51.488281 367.503906 L 59.125 367.503906 L 59.125 375.140625 L 51.488281 375.140625 Z M 51.488281 367.503906 " fill-opacity="1" fill-rule="nonzero"/></g></g><g clip-path="url(#766a90897d)"><g clip-path="url(#f387efdf71)"><path fill="#000000" d="M 169.46875 202.359375 L 177.023438 202.359375 L 177.023438 209.914062 L 169.46875 209.914062 Z M 169.46875 202.359375 " fill-opacity="1" fill-rule="nonzero"/></g></g></svg>