<svg xmlns="http://www.w3.org/2000/svg" xmlns:xlink="http://www.w3.org/1999/xlink" width="500" zoomAndPan="magnify" viewBox="0 0 375 374.999991" height="500" preserveAspectRatio="xMidYMid meet" version="1.0"><defs><clipPath id="bafea347b1"><path d="M 199 47 L 297 47 L 297 146 L 199 146 Z M 199 47 " clip-rule="nonzero"/></clipPath><clipPath id="8f2d3a1cf3"><path d="M 275.871094 33.578125 L 311.066406 124.59375 L 220.046875 159.792969 L 184.851562 68.773438 Z M 275.871094 33.578125 " clip-rule="nonzero"/></clipPath><clipPath id="4f04819bef"><path d="M 293.46875 79.085938 C 283.75 53.953125 255.496094 41.457031 230.359375 51.175781 C 205.226562 60.894531 192.730469 89.148438 202.449219 114.28125 C 212.167969 139.417969 240.421875 151.910156 265.558594 142.191406 C 290.691406 132.472656 303.1875 104.21875 293.46875 79.085938 Z M 293.46875 79.085938 " clip-rule="nonzero"/></clipPath><clipPath id="48f614b07b"><path d="M 199 47 L 297 47 L 297 146 L 199 146 Z M 199 47 " clip-rule="nonzero"/></clipPath><clipPath id="b3c0cc6178"><path d="M 275.871094 33.578125 L 311.035156 124.515625 L 220.097656 159.679688 L 184.933594 68.742188 Z M 275.871094 33.578125 " clip-rule="nonzero"/></clipPath><clipPath id="6774d0724d"><path d="M 275.871094 33.578125 L 311.0625 124.589844 L 220.050781 159.785156 L 184.855469 68.773438 Z M 275.871094 33.578125 " clip-rule="nonzero"/></clipPath><clipPath id="da34285f7b"><path d="M 293.46875 79.085938 C 283.746094 53.953125 255.496094 41.457031 230.363281 51.175781 C 205.230469 60.894531 192.734375 89.148438 202.453125 114.28125 C 212.171875 139.414062 240.425781 151.90625 265.558594 142.1875 C 290.691406 132.46875 303.1875 104.21875 293.46875 79.085938 Z M 293.46875 79.085938 " clip-rule="nonzero"/></clipPath><clipPath id="53e6a92695"><path d="M 254 105 L 266 105 L 266 118 L 254 118 Z M 254 105 " clip-rule="nonzero"/></clipPath><clipPath id="1377a33a59"><path d="M 263.113281 104.183594 L 267.234375 114.84375 L 256.574219 118.964844 L 252.453125 108.304688 Z M 263.113281 104.183594 " clip-rule="nonzero"/></clipPath><clipPath id="11e902cae2"><path d="M 265.171875 109.511719 C 264.035156 106.570312 260.726562 105.105469 257.78125 106.246094 C 254.839844 107.382812 253.375 110.691406 254.511719 113.636719 C 255.652344 116.578125 258.960938 118.042969 261.90625 116.90625 C 264.847656 115.765625 266.3125 112.457031 265.171875 109.511719 Z M 265.171875 109.511719 " clip-rule="nonzero"/></clipPath><clipPath id="ecb2609831"><path d="M 300.019531 192.082031 L 306.109375 192.082031 L 306.109375 198.171875 L 300.019531 198.171875 Z M 300.019531 192.082031 " clip-rule="nonzero"/></clipPath><clipPath id="02c2cd98cc"><path d="M 303.0625 192.082031 C 301.382812 192.082031 300.019531 193.445312 300.019531 195.125 C 300.019531 196.808594 301.382812 198.171875 303.0625 198.171875 C 304.746094 198.171875 306.109375 196.808594 306.109375 195.125 C 306.109375 193.445312 304.746094 192.082031 303.0625 192.082031 Z M 303.0625 192.082031 " clip-rule="nonzero"/></clipPath><clipPath id="57e9c0c7b3"><path d="M 204.128906 121.636719 L 212.386719 121.636719 L 212.386719 126.585938 L 204.128906 126.585938 Z M 204.128906 121.636719 " clip-rule="nonzero"/></clipPath><clipPath id="c4f26a32cd"><path d="M 208.25 121.636719 C 205.976562 121.636719 204.128906 122.746094 204.128906 124.113281 C 204.128906 125.480469 205.976562 126.585938 208.25 126.585938 C 210.527344 126.585938 212.371094 125.480469 212.371094 124.113281 C 212.371094 122.746094 210.527344 121.636719 208.25 121.636719 Z M 208.25 121.636719 " clip-rule="nonzero"/></clipPath></defs><path stroke-linecap="butt" transform="matrix(0, 0.75, -0.75, 0, 306.08644, 158.476307)" fill="none" stroke-linejoin="miter" d="M 0.000340409 3.50067 L 49.807635 3.50067 " stroke="#000000" stroke-width="7" stroke-opacity="1" stroke-miterlimit="4"/><g clip-path="url(#bafea347b1)"><g clip-path="url(#8f2d3a1cf3)"><g clip-path="url(#4f04819bef)"><path fill="#ffffff" d="M 275.871094 33.578125 L 311.066406 124.59375 L 220.046875 159.792969 L 184.851562 68.773438 Z M 275.871094 33.578125 " fill-opacity="1" fill-rule="nonzero"/></g></g></g><g clip-path="url(#48f614b07b)"><g clip-path="url(#b3c0cc6178)"><g clip-path="url(#6774d0724d)"><g clip-path="url(#da34285f7b)"><path stroke-linecap="butt" transform="matrix(0.270504, 0.699519, -0.699519, 0.270504, 275.869323, 33.577553)" fill="none" stroke-linejoin="miter" d="M 65.057284 -0.00166283 C 29.126773 0.00306174 0.00143246 29.125162 0.00129926 65.053794 C 0.00116606 100.982427 29.128124 130.109646 65.056756 130.109779 C 100.985389 130.109912 130.10775 100.981076 130.107883 65.052443 C 130.108017 29.123811 100.985916 -0.00152963 65.057284 -0.00166283 Z M 65.057284 -0.00166283 " stroke="#000000" stroke-width="14" stroke-opacity="1" stroke-miterlimit="4"/></g></g></g></g><g clip-path="url(#53e6a92695)"><g clip-path="url(#1377a33a59)"><g clip-path="url(#11e902cae2)"><path fill="#000000" d="M 263.113281 104.183594 L 267.234375 114.84375 L 256.574219 118.964844 L 252.453125 108.304688 Z M 263.113281 104.183594 " fill-opacity="1" fill-rule="nonzero"/></g></g></g><path stroke-linecap="butt" transform="matrix(0.270504, 0.699519, -0.699519, 0.270504, 268.010406, 141.249776)" fill="none" stroke-linejoin="miter" d="M -0.00132849 3.498897 L 30.683957 3.498491 " stroke="#000000" stroke-width="7" stroke-opacity="1" stroke-miterlimit="4"/><path stroke-linecap="butt" transform="matrix(0.75, 0, 0, 0.75, 184.852639, 370.121196)" fill="none" stroke-linejoin="miter" d="M -0.00143502 3.499864 L 49.80586 3.499864 " stroke="#000000" stroke-width="7" stroke-opacity="1" stroke-miterlimit="4"/><g clip-path="url(#ecb2609831)"><g clip-path="url(#02c2cd98cc)"><path fill="#000000" d="M 300.019531 192.082031 L 306.109375 192.082031 L 306.109375 198.171875 L 300.019531 198.171875 Z M 300.019531 192.082031 " fill-opacity="1" fill-rule="nonzero"/></g></g><path stroke-linecap="butt" transform="matrix(-0.0171738, 0.749803, -0.749803, -0.0171738, 192.827337, 252.677736)" fill="none" stroke-linejoin="miter" d="M -0.00059012 3.49988 C 39.910863 3.49743 92.393409 3.498789 157.457342 3.498513 " stroke="#000000" stroke-width="7" stroke-opacity="1" stroke-miterlimit="4"/><path stroke-linecap="butt" transform="matrix(0.0833034, -0.745359, 0.745359, 0.0833034, 163.558074, 253.833439)" fill="none" stroke-linejoin="miter" d="M 1.854823 37.961862 C 75.435938 -7.984764 133.843879 -7.987847 177.079223 37.95779 " stroke="#000000" stroke-width="7" stroke-opacity="1" stroke-miterlimit="4"/><path stroke-linecap="butt" transform="matrix(-0.657793, 0.360289, -0.360289, -0.657793, 304.718012, 198.132628)" fill="none" stroke-linejoin="miter" d="M 0.00104032 3.498017 C 43.641911 3.499034 101.037335 3.497897 172.184811 3.499174 " stroke="#000000" stroke-width="7" stroke-opacity="1" stroke-miterlimit="4"/><path stroke-linecap="butt" transform="matrix(0.711813, -0.236267, 0.236267, 0.711813, 287.165698, 150.767964)" fill="none" stroke-linejoin="miter" d="M 0.0000663165 3.497919 L 28.388121 3.498099 " stroke="#000000" stroke-width="7" stroke-opacity="1" stroke-miterlimit="4"/><path stroke-linecap="butt" transform="matrix(0.3828, 0.644953, -0.644953, 0.3828, 290.249165, 151.926948)" fill="none" stroke-linejoin="miter" d="M -0.00104595 3.498826 L 26.60925 3.503226 " stroke="#000000" stroke-width="7" stroke-opacity="1" stroke-miterlimit="4"/><path stroke-linecap="butt" transform="matrix(-0.708963, -0.244687, 0.244687, -0.708963, 304.766293, 161.671117)" fill="none" stroke-linejoin="miter" d="M 0.00130262 3.497212 L 139.681365 3.499644 " stroke="#000000" stroke-width="7" stroke-opacity="1" stroke-miterlimit="4"/><path stroke-linecap="butt" transform="matrix(0.744437, 0.0911786, -0.0911786, 0.744437, 173.973612, 222.462758)" fill="none" stroke-linejoin="miter" d="M 0.00202785 3.497224 L 28.384746 3.499842 " stroke="#000000" stroke-width="7" stroke-opacity="1" stroke-miterlimit="4"/><path stroke-linecap="butt" transform="matrix(0.0698714, 0.746738, -0.746738, 0.0698714, 176.264158, 224.830108)" fill="none" stroke-linejoin="miter" d="M -0.000363654 3.497596 L 26.609681 3.502701 " stroke="#000000" stroke-width="7" stroke-opacity="1" stroke-miterlimit="4"/><path stroke-linecap="butt" transform="matrix(-0.140434, 0.736735, -0.736735, -0.140434, 208.690625, 122.962374)" fill="none" stroke-linejoin="miter" d="M 3.206663 2.229628 C 38.983442 83.886306 90.604949 83.8871 158.070209 2.226894 " stroke="#000000" stroke-width="7" stroke-opacity="1" stroke-miterlimit="4"/><g clip-path="url(#57e9c0c7b3)"><g clip-path="url(#c4f26a32cd)"><path fill="#000000" d="M 204.128906 121.636719 L 212.367188 121.636719 L 212.367188 126.585938 L 204.128906 126.585938 Z M 204.128906 121.636719 " fill-opacity="1" fill-rule="nonzero"/></g></g></svg>