<svg xmlns="http://www.w3.org/2000/svg" xmlns:xlink="http://www.w3.org/1999/xlink" width="500" zoomAndPan="magnify" viewBox="0 0 375 374.999991" height="500" preserveAspectRatio="xMidYMid meet" version="1.0"><defs><clipPath id="03b108fe42"><path d="M 264 135 L 363 135 L 363 234 L 264 234 Z M 264 135 " clip-rule="nonzero"/></clipPath><clipPath id="c6cf782edc"><path d="M 297.382812 251.851562 L 246.511719 168.574219 L 329.789062 117.703125 L 380.660156 200.980469 Z M 297.382812 251.851562 " clip-rule="nonzero"/></clipPath><clipPath id="e30a45b211"><path d="M 271.949219 210.210938 C 285.996094 233.207031 316.023438 240.460938 339.019531 226.414062 C 362.019531 212.367188 369.273438 182.335938 355.226562 159.339844 C 341.175781 136.34375 311.148438 129.089844 288.152344 143.136719 C 265.15625 157.183594 257.898438 187.214844 271.949219 210.210938 Z M 271.949219 210.210938 " clip-rule="nonzero"/></clipPath><clipPath id="03f452c58a"><path d="M 264 135 L 363 135 L 363 234 L 264 234 Z M 264 135 " clip-rule="nonzero"/></clipPath><clipPath id="a5692f58da"><path d="M 297.382812 251.851562 L 246.558594 168.644531 L 329.761719 117.820312 L 380.585938 201.023438 Z M 297.382812 251.851562 " clip-rule="nonzero"/></clipPath><clipPath id="768c1c647f"><path d="M 297.382812 251.851562 L 246.515625 168.574219 L 329.789062 117.707031 L 380.65625 200.980469 Z M 297.382812 251.851562 " clip-rule="nonzero"/></clipPath><clipPath id="a67754c157"><path d="M 271.949219 210.214844 C 285.996094 233.207031 316.023438 240.460938 339.019531 226.414062 C 362.015625 212.367188 369.269531 182.339844 355.222656 159.34375 C 341.175781 136.347656 311.148438 129.09375 288.152344 143.140625 C 265.15625 157.1875 257.902344 187.21875 271.949219 210.214844 Z M 271.949219 210.214844 " clip-rule="nonzero"/></clipPath><clipPath id="ed099536d9"><path d="M 303 160 L 315 160 L 315 172 L 303 172 Z M 303 160 " clip-rule="nonzero"/></clipPath><clipPath id="eaf9a734ba"><path d="M 306.828125 173.714844 L 300.871094 163.957031 L 310.625 158 L 316.582031 167.753906 Z M 306.828125 173.714844 " clip-rule="nonzero"/></clipPath><clipPath id="1422b21f90"><path d="M 303.847656 168.835938 C 305.496094 171.53125 309.011719 172.378906 311.707031 170.734375 C 314.398438 169.089844 315.25 165.570312 313.601562 162.878906 C 311.957031 160.183594 308.441406 159.335938 305.746094 160.980469 C 303.054688 162.625 302.203125 166.140625 303.847656 168.835938 Z M 303.847656 168.835938 " clip-rule="nonzero"/></clipPath><clipPath id="a8534e2429"><path d="M 5.238281 369.671875 L 10.644531 369.671875 L 10.644531 375 L 5.238281 375 Z M 5.238281 369.671875 " clip-rule="nonzero"/></clipPath><clipPath id="4f112e70ef"><path d="M 7.941406 369.671875 C 6.445312 369.671875 5.238281 370.882812 5.238281 372.375 C 5.238281 373.867188 6.445312 375.078125 7.941406 375.078125 C 9.433594 375.078125 10.644531 373.867188 10.644531 372.375 C 10.644531 370.882812 9.433594 369.671875 7.941406 369.671875 Z M 7.941406 369.671875 " clip-rule="nonzero"/></clipPath></defs><path stroke-linecap="butt" transform="matrix(-0.667699, 0.341582, -0.341582, -0.667699, 276.103345, 207.174303)" fill="none" stroke-linejoin="miter" d="M 0.000984495 3.502631 L 165.81715 3.501535 " stroke="#000000" stroke-width="7" stroke-opacity="1" stroke-miterlimit="4"/><path stroke-linecap="butt" transform="matrix(0.75, 0, 0, 0.75, 251.561268, 369.686078)" fill="none" stroke-linejoin="miter" d="M 0.00164269 3.501896 L 49.808938 3.501896 " stroke="#000000" stroke-width="7" stroke-opacity="1" stroke-miterlimit="4"/><g clip-path="url(#03b108fe42)"><g clip-path="url(#c6cf782edc)"><g clip-path="url(#e30a45b211)"><path fill="#ffffff" d="M 297.382812 251.851562 L 246.511719 168.574219 L 329.789062 117.703125 L 380.660156 200.980469 Z M 297.382812 251.851562 " fill-opacity="1" fill-rule="nonzero"/></g></g></g><g clip-path="url(#03f452c58a)"><g clip-path="url(#a5692f58da)"><g clip-path="url(#768c1c647f)"><g clip-path="url(#a67754c157)"><path stroke-linecap="butt" transform="matrix(-0.390969, -0.640034, 0.640034, -0.390969, 297.382689, 251.850247)" fill="none" stroke-linejoin="miter" d="M 65.052027 -0.00022512 C 29.12728 0.00198151 -0.00162208 29.123644 0.00231417 65.055551 C 0.00180574 100.984743 29.126183 130.1092 65.055375 130.109708 C 100.984567 130.110217 130.109024 100.98584 130.109532 65.056647 C 130.110041 29.127455 100.981219 0.000283311 65.052027 -0.00022512 Z M 65.052027 -0.00022512 " stroke="#000000" stroke-width="14" stroke-opacity="1" stroke-miterlimit="4"/></g></g></g></g><g clip-path="url(#ed099536d9)"><g clip-path="url(#eaf9a734ba)"><g clip-path="url(#1422b21f90)"><path fill="#000000" d="M 306.828125 173.714844 L 300.871094 163.957031 L 310.625 158 L 316.582031 167.753906 Z M 306.828125 173.714844 " fill-opacity="1" fill-rule="nonzero"/></g></g></g><path stroke-linecap="butt" transform="matrix(-0.390969, -0.640034, 0.640034, -0.390969, 285.906579, 144.507588)" fill="none" stroke-linejoin="miter" d="M -0.00283531 3.500988 L 30.682969 3.502714 " stroke="#000000" stroke-width="7" stroke-opacity="1" stroke-miterlimit="4"/><path stroke-linecap="butt" transform="matrix(0.75, 0, 0, 0.75, 164.195327, 258.852084)" fill="none" stroke-linejoin="miter" d="M -0.0000186905 3.499305 L 118.015614 3.499305 " stroke="#000000" stroke-width="7" stroke-opacity="1" stroke-miterlimit="4"/><path stroke-linecap="butt" transform="matrix(0.75, 0, 0, 0.75, 7.940603, 369.749976)" fill="none" stroke-linejoin="miter" d="M 0.00107044 3.500033 L 49.808365 3.500033 " stroke="#000000" stroke-width="7" stroke-opacity="1" stroke-miterlimit="4"/><g clip-path="url(#a8534e2429)"><g clip-path="url(#4f112e70ef)"><path fill="#000000" d="M 5.238281 369.671875 L 10.644531 369.671875 L 10.644531 375.078125 L 5.238281 375.078125 Z M 5.238281 369.671875 " fill-opacity="1" fill-rule="nonzero"/></g></g><path stroke-linecap="butt" transform="matrix(0.0147637, 0.749855, -0.749855, 0.0147637, 254.184276, 261.478576)" fill="none" stroke-linejoin="miter" d="M 0.00130245 3.501614 L 155.020948 3.501091 " stroke="#000000" stroke-width="7" stroke-opacity="1" stroke-miterlimit="4"/><path stroke-linecap="butt" transform="matrix(0.0391507, 0.748977, -0.748977, 0.0391507, 268.568572, 200.263566)" fill="none" stroke-linejoin="miter" d="M 0.00220236 3.502569 L 228.887453 3.497473 " stroke="#000000" stroke-width="7" stroke-opacity="1" stroke-miterlimit="4"/><path stroke-linecap="butt" transform="matrix(-0.611735, 0.433913, -0.433913, -0.611735, 165.709213, 263.619681)" fill="none" stroke-linejoin="miter" d="M 0.000466381 3.497292 C 64.741082 3.500503 149.885682 3.500591 255.427006 3.498791 " stroke="#000000" stroke-width="7" stroke-opacity="1" stroke-miterlimit="4"/><path stroke-linecap="butt" transform="matrix(-0.35206, 0.662234, -0.662234, -0.35206, 354.105216, 47.416446)" fill="none" stroke-linejoin="miter" d="M 1.844486 2.977002 C 84.488314 54.268411 167.132086 54.265653 249.773649 2.975771 " stroke="#000000" stroke-width="7" stroke-opacity="1" stroke-miterlimit="4"/><path stroke-linecap="butt" transform="matrix(0.493375, 0.564872, -0.564872, 0.493375, 276.888034, 357.320924)" fill="none" stroke-linejoin="miter" d="M -0.00158955 3.500072 L 28.384187 3.501728 " stroke="#000000" stroke-width="7" stroke-opacity="1" stroke-miterlimit="4"/><path stroke-linecap="butt" transform="matrix(-0.434193, 0.611536, -0.611536, -0.434193, 275.242311, 361.367379)" fill="none" stroke-linejoin="miter" d="M 0.000236819 3.500441 L 20.485335 3.500514 " stroke="#000000" stroke-width="7" stroke-opacity="1" stroke-miterlimit="4"/></svg>