<svg xmlns="http://www.w3.org/2000/svg" xmlns:xlink="http://www.w3.org/1999/xlink" width="500" zoomAndPan="magnify" viewBox="0 0 375 374.999991" height="500" preserveAspectRatio="xMidYMid meet" version="1.0"><defs><clipPath id="47f27ab8dc"><path d="M 138.996094 37.5 L 236.582031 37.5 L 236.582031 135.085938 L 138.996094 135.085938 Z M 138.996094 37.5 " clip-rule="nonzero"/></clipPath><clipPath id="9cd4202464"><path d="M 187.789062 37.5 C 160.839844 37.5 138.996094 59.34375 138.996094 86.292969 C 138.996094 113.238281 160.839844 135.085938 187.789062 135.085938 C 214.738281 135.085938 236.582031 113.238281 236.582031 86.292969 C 236.582031 59.34375 214.738281 37.5 187.789062 37.5 Z M 187.789062 37.5 " clip-rule="nonzero"/></clipPath><clipPath id="7d206ff302"><path d="M 138.996094 37.5 L 236.496094 37.5 L 236.496094 135 L 138.996094 135 Z M 138.996094 37.5 " clip-rule="nonzero"/></clipPath><clipPath id="1bee339a4a"><path d="M 187.789062 37.5 C 160.839844 37.5 138.996094 59.34375 138.996094 86.289062 C 138.996094 113.238281 160.839844 135.082031 187.789062 135.082031 C 214.734375 135.082031 236.578125 113.238281 236.578125 86.289062 C 236.578125 59.34375 214.734375 37.5 187.789062 37.5 Z M 187.789062 37.5 " clip-rule="nonzero"/></clipPath><clipPath id="32f3bd9da9"><path d="M 200.25 74.863281 L 211.679688 74.863281 L 211.679688 86.292969 L 200.25 86.292969 Z M 200.25 74.863281 " clip-rule="nonzero"/></clipPath><clipPath id="cbd8597b77"><path d="M 205.964844 74.863281 C 202.808594 74.863281 200.25 77.421875 200.25 80.578125 C 200.25 83.734375 202.808594 86.292969 205.964844 86.292969 C 209.121094 86.292969 211.679688 83.734375 211.679688 80.578125 C 211.679688 77.421875 209.121094 74.863281 205.964844 74.863281 Z M 205.964844 74.863281 " clip-rule="nonzero"/></clipPath><clipPath id="c54a95d604"><path d="M 300.019531 192.082031 L 306.109375 192.082031 L 306.109375 198.171875 L 300.019531 198.171875 Z M 300.019531 192.082031 " clip-rule="nonzero"/></clipPath><clipPath id="e7be9689ee"><path d="M 303.0625 192.082031 C 301.382812 192.082031 300.019531 193.445312 300.019531 195.125 C 300.019531 196.808594 301.382812 198.171875 303.0625 198.171875 C 304.746094 198.171875 306.109375 196.808594 306.109375 195.125 C 306.109375 193.445312 304.746094 192.082031 303.0625 192.082031 Z M 303.0625 192.082031 " clip-rule="nonzero"/></clipPath></defs><path stroke-linecap="butt" transform="matrix(-0.7374, -0.136901, 0.136901, -0.7374, 302.984956, 161.052894)" fill="none" stroke-linejoin="miter" d="M -0.00112552 3.499313 L 155.846438 3.499741 " stroke="#000000" stroke-width="7" stroke-opacity="1" stroke-miterlimit="4"/><path stroke-linecap="butt" transform="matrix(0, 0.75, -0.75, 0, 306.08644, 158.476307)" fill="none" stroke-linejoin="miter" d="M 0.000340409 3.50067 L 49.807635 3.50067 " stroke="#000000" stroke-width="7" stroke-opacity="1" stroke-miterlimit="4"/><g clip-path="url(#47f27ab8dc)"><g clip-path="url(#9cd4202464)"><path fill="#ffffff" d="M 138.996094 37.5 L 236.582031 37.5 L 236.582031 135.085938 L 138.996094 135.085938 Z M 138.996094 37.5 " fill-opacity="1" fill-rule="nonzero"/></g></g><g clip-path="url(#7d206ff302)"><g clip-path="url(#1bee339a4a)"><path stroke-linecap="butt" transform="matrix(0.75, 0, 0, 0.75, 138.996339, 37.499998)" fill="none" stroke-linejoin="miter" d="M 65.05697 0.00000328333 C 29.124675 0.00000328333 -0.00032643 29.125005 -0.00032643 65.052091 C -0.00032643 100.984385 29.124675 130.109387 65.05697 130.109387 C 100.984055 130.109387 130.109057 100.984385 130.109057 65.052091 C 130.109057 29.125005 100.984055 0.00000328333 65.05697 0.00000328333 Z M 65.05697 0.00000328333 " stroke="#000000" stroke-width="14" stroke-opacity="1" stroke-miterlimit="4"/></g></g><g clip-path="url(#32f3bd9da9)"><g clip-path="url(#cbd8597b77)"><path fill="#000000" d="M 200.25 74.863281 L 211.679688 74.863281 L 211.679688 86.292969 L 200.25 86.292969 Z M 200.25 74.863281 " fill-opacity="1" fill-rule="nonzero"/></g></g><path stroke-linecap="butt" transform="matrix(0.75, 0, 0, 0.75, 236.586947, 83.664319)" fill="none" stroke-linejoin="miter" d="M -0.00134542 3.499659 L 30.680948 3.499659 " stroke="#000000" stroke-width="7" stroke-opacity="1" stroke-miterlimit="4"/><path stroke-linecap="butt" transform="matrix(0.75, 0, 0, 0.75, 184.852639, 370.121196)" fill="none" stroke-linejoin="miter" d="M -0.00143502 3.499864 L 49.80586 3.499864 " stroke="#000000" stroke-width="7" stroke-opacity="1" stroke-miterlimit="4"/><g clip-path="url(#c54a95d604)"><g clip-path="url(#e7be9689ee)"><path fill="#000000" d="M 300.019531 192.082031 L 306.109375 192.082031 L 306.109375 198.171875 L 300.019531 198.171875 Z M 300.019531 192.082031 " fill-opacity="1" fill-rule="nonzero"/></g></g><path stroke-linecap="butt" transform="matrix(-0.00332669, 0.749993, -0.749993, -0.00332669, 191.169602, 135.097417)" fill="none" stroke-linejoin="miter" d="M 0.000228745 3.502211 C 79.620792 3.498005 184.330183 3.502306 314.128333 3.499491 " stroke="#000000" stroke-width="7" stroke-opacity="1" stroke-miterlimit="4"/><path stroke-linecap="butt" transform="matrix(0.0177208, -0.749791, 0.749791, 0.0177208, 133.967881, 249.984125)" fill="none" stroke-linejoin="miter" d="M 2.727498 67.804606 C 71.741809 -17.93332 121.536976 -17.932784 152.118084 67.800884 " stroke="#000000" stroke-width="7" stroke-opacity="1" stroke-miterlimit="4"/><path stroke-linecap="butt" transform="matrix(-0.659521, 0.357116, -0.357116, -0.659521, 304.712034, 198.137346)" fill="none" stroke-linejoin="miter" d="M 0.000825318 3.501808 C 44.566696 3.4976 103.17815 3.499739 175.833089 3.501167 " stroke="#000000" stroke-width="7" stroke-opacity="1" stroke-miterlimit="4"/><path stroke-linecap="butt" transform="matrix(0.640979, -0.389417, 0.389417, 0.640979, 285.733051, 153.517783)" fill="none" stroke-linejoin="miter" d="M 0.00152362 3.501719 L 28.384098 3.498544 " stroke="#000000" stroke-width="7" stroke-opacity="1" stroke-miterlimit="4"/><path stroke-linecap="butt" transform="matrix(0.517295, 0.543053, -0.543053, 0.517295, 288.997543, 153.958087)" fill="none" stroke-linejoin="miter" d="M 0.00161455 3.50007 L 26.60704 3.502146 " stroke="#000000" stroke-width="7" stroke-opacity="1" stroke-miterlimit="4"/><path stroke-linecap="butt" transform="matrix(0.749793, 0.0175995, -0.0175995, 0.749793, 167.733245, 231.076859)" fill="none" stroke-linejoin="miter" d="M 0.000243521 3.497437 L 28.388283 3.497951 " stroke="#000000" stroke-width="7" stroke-opacity="1" stroke-miterlimit="4"/><path stroke-linecap="butt" transform="matrix(0.142897, 0.736261, -0.736261, 0.142897, 170.245292, 233.207737)" fill="none" stroke-linejoin="miter" d="M -0.00121289 3.500321 L 26.605651 3.502047 " stroke="#000000" stroke-width="7" stroke-opacity="1" stroke-miterlimit="4"/></svg>