<svg xmlns="http://www.w3.org/2000/svg" xmlns:xlink="http://www.w3.org/1999/xlink" width="500" zoomAndPan="magnify" viewBox="0 0 375 374.999991" height="500" preserveAspectRatio="xMidYMid meet" version="1.0"><defs><clipPath id="f97eed95fa"><path d="M 139.75 277.414062 L 237.335938 277.414062 L 237.335938 375 L 139.75 375 Z M 139.75 277.414062 " clip-rule="nonzero"/></clipPath><clipPath id="6340f54022"><path d="M 237.335938 326.207031 C 237.335938 299.261719 215.488281 277.414062 188.542969 277.414062 C 161.59375 277.414062 139.75 299.261719 139.75 326.207031 C 139.75 353.15625 161.59375 375 188.542969 375 C 215.488281 375 237.335938 353.15625 237.335938 326.207031 Z M 237.335938 326.207031 " clip-rule="nonzero"/></clipPath><clipPath id="7f6c4a526d"><path d="M 139.835938 277.414062 L 237.335938 277.414062 L 237.335938 374.914062 L 139.835938 374.914062 Z M 139.835938 277.414062 " clip-rule="nonzero"/></clipPath><clipPath id="00fa5eef52"><path d="M 237.335938 326.207031 C 237.335938 299.257812 215.488281 277.414062 188.542969 277.414062 C 161.597656 277.414062 139.753906 299.257812 139.753906 326.207031 C 139.753906 353.152344 161.597656 374.996094 188.542969 374.996094 C 215.488281 374.996094 237.335938 353.152344 237.335938 326.207031 Z M 237.335938 326.207031 " clip-rule="nonzero"/></clipPath><clipPath id="04eb2e2f66"><path d="M 197.875 337.714844 L 209.304688 337.714844 L 209.304688 349.144531 L 197.875 349.144531 Z M 197.875 337.714844 " clip-rule="nonzero"/></clipPath><clipPath id="e9c606123a"><path d="M 209.304688 343.429688 C 209.304688 340.273438 206.746094 337.714844 203.589844 337.714844 C 200.433594 337.714844 197.875 340.273438 197.875 343.429688 C 197.875 346.585938 200.433594 349.144531 203.589844 349.144531 C 206.746094 349.144531 209.304688 346.585938 209.304688 343.429688 Z M 209.304688 343.429688 " clip-rule="nonzero"/></clipPath><clipPath id="ab63e71ed7"><path d="M 167.449219 337.714844 L 178.878906 337.714844 L 178.878906 349.144531 L 167.449219 349.144531 Z M 167.449219 337.714844 " clip-rule="nonzero"/></clipPath><clipPath id="cdfc9c9e22"><path d="M 178.878906 343.429688 C 178.878906 340.273438 176.320312 337.714844 173.164062 337.714844 C 170.007812 337.714844 167.449219 340.273438 167.449219 343.429688 C 167.449219 346.585938 170.007812 349.144531 173.164062 349.144531 C 176.320312 349.144531 178.878906 346.585938 178.878906 343.429688 Z M 178.878906 343.429688 " clip-rule="nonzero"/></clipPath></defs><path stroke-linecap="butt" transform="matrix(0.00870149, -0.749949, 0.749949, 0.00870149, 184.362369, 289.69507)" fill="none" stroke-linejoin="miter" d="M -0.00136643 3.501468 L 116.579361 3.497858 " stroke="#000000" stroke-width="7" stroke-opacity="1" stroke-miterlimit="4"/><path stroke-linecap="butt" transform="matrix(-0.531079, 0.52958, -0.52958, -0.531079, 189.353284, 206.357902)" fill="none" stroke-linejoin="miter" d="M 0.000588458 3.498943 C 80.747116 3.499047 186.942151 3.500029 318.578329 3.501901 " stroke="#000000" stroke-width="7" stroke-opacity="1" stroke-miterlimit="4"/><path stroke-linecap="butt" transform="matrix(0.642472, 0.386949, -0.386949, 0.642472, 188.716456, 277.767375)" fill="none" stroke-linejoin="miter" d="M 0.00103334 3.498751 C 75.182736 3.502263 150.361752 3.501313 225.545229 3.497675 " stroke="#000000" stroke-width="7" stroke-opacity="1" stroke-miterlimit="4"/><path stroke-linecap="butt" transform="matrix(-0.519745, -0.540708, 0.540708, -0.519745, 348.820234, 375.029301)" fill="none" stroke-linejoin="miter" d="M 0.000926262 3.497607 C 79.087237 3.503397 183.092684 3.499124 312.024922 3.49937 " stroke="#000000" stroke-width="7" stroke-opacity="1" stroke-miterlimit="4"/><path stroke-linecap="butt" transform="matrix(-0.645943, 0.381126, -0.381126, -0.645943, 187.340147, 281.924689)" fill="none" stroke-linejoin="miter" d="M -0.00172719 3.49871 C 76.635225 3.500772 153.274824 3.498348 229.911776 3.50041 " stroke="#000000" stroke-width="7" stroke-opacity="1" stroke-miterlimit="4"/><g clip-path="url(#f97eed95fa)"><g clip-path="url(#6340f54022)"><path fill="#ffffff" d="M 237.335938 277.414062 L 237.335938 375 L 139.75 375 L 139.75 277.414062 Z M 237.335938 277.414062 " fill-opacity="1" fill-rule="nonzero"/></g></g><g clip-path="url(#7f6c4a526d)"><g clip-path="url(#00fa5eef52)"><path stroke-linecap="butt" transform="matrix(0, 0.75, -0.75, 0, 237.334311, 277.414551)" fill="none" stroke-linejoin="miter" d="M 65.056644 -0.00216825 C 29.12435 -0.00216825 -0.000651844 29.128042 -0.000651844 65.055128 C -0.000651844 100.982213 29.12435 130.107215 65.056644 130.107215 C 100.98373 130.107215 130.108732 100.982213 130.108732 65.055128 C 130.108732 29.128042 100.98373 -0.00216825 65.056644 -0.00216825 Z M 65.056644 -0.00216825 " stroke="#000000" stroke-width="14" stroke-opacity="1" stroke-miterlimit="4"/></g></g><g clip-path="url(#04eb2e2f66)"><g clip-path="url(#e9c606123a)"><path fill="#000000" d="M 209.304688 337.714844 L 209.304688 349.144531 L 197.875 349.144531 L 197.875 337.714844 Z M 209.304688 337.714844 " fill-opacity="1" fill-rule="nonzero"/></g></g><path stroke-linecap="butt" transform="matrix(0.000000001309, 0.75, -0.75, 0.000000001309, 191.165807, 326.211454)" fill="none" stroke-linejoin="miter" d="M -0.000688378 3.502326 L 15.009729 3.502326 " stroke="#000000" stroke-width="7" stroke-opacity="1" stroke-miterlimit="4"/><g clip-path="url(#ab63e71ed7)"><g clip-path="url(#cdfc9c9e22)"><path fill="#000000" d="M 178.878906 337.714844 L 178.878906 349.144531 L 167.449219 349.144531 L 167.449219 337.714844 Z M 178.878906 337.714844 " fill-opacity="1" fill-rule="nonzero"/></g></g><path stroke-linecap="butt" transform="matrix(0.74638, -0.0735972, 0.0735972, 0.74638, 33.539211, 355.204753)" fill="none" stroke-linejoin="miter" d="M 0.000185966 3.499111 L 30.454573 3.498001 " stroke="#000000" stroke-width="7" stroke-opacity="1" stroke-miterlimit="4"/><path stroke-linecap="butt" transform="matrix(-0.284366, 0.694, -0.694, -0.284366, 58.956476, 356.571773)" fill="none" stroke-linejoin="miter" d="M 0.00208057 3.499338 L 30.002604 3.499517 " stroke="#000000" stroke-width="7" stroke-opacity="1" stroke-miterlimit="4"/><path stroke-linecap="butt" transform="matrix(-0.424867, -0.618052, 0.618052, -0.424867, 320.993655, 374.956821)" fill="none" stroke-linejoin="miter" d="M 0.00158271 3.500139 L 30.452509 3.500278 " stroke="#000000" stroke-width="7" stroke-opacity="1" stroke-miterlimit="4"/><path stroke-linecap="butt" transform="matrix(0.74504, -0.0861112, 0.0861112, 0.74504, 309.916976, 352.039254)" fill="none" stroke-linejoin="miter" d="M 0.000272963 3.502103 L 30.001148 3.498715 " stroke="#000000" stroke-width="7" stroke-opacity="1" stroke-miterlimit="4"/></svg>