<svg xmlns="http://www.w3.org/2000/svg" xmlns:xlink="http://www.w3.org/1999/xlink" width="500" zoomAndPan="magnify" viewBox="0 0 375 374.999991" height="500" preserveAspectRatio="xMidYMid meet" version="1.0"><defs><clipPath id="3fa9cd3f57"><path d="M 125.746094 37.5 L 223.328125 37.5 L 223.328125 135.085938 L 125.746094 135.085938 Z M 125.746094 37.5 " clip-rule="nonzero"/></clipPath><clipPath id="5fd63633f7"><path d="M 174.535156 37.5 C 147.589844 37.5 125.746094 59.34375 125.746094 86.292969 C 125.746094 113.238281 147.589844 135.085938 174.535156 135.085938 C 201.484375 135.085938 223.328125 113.238281 223.328125 86.292969 C 223.328125 59.34375 201.484375 37.5 174.535156 37.5 Z M 174.535156 37.5 " clip-rule="nonzero"/></clipPath><clipPath id="87d26f5611"><path d="M 125.746094 37.5 L 223.246094 37.5 L 223.246094 135 L 125.746094 135 Z M 125.746094 37.5 " clip-rule="nonzero"/></clipPath><clipPath id="b574605183"><path d="M 174.535156 37.5 C 147.589844 37.5 125.746094 59.34375 125.746094 86.289062 C 125.746094 113.238281 147.589844 135.082031 174.535156 135.082031 C 201.480469 135.082031 223.328125 113.238281 223.328125 86.289062 C 223.328125 59.34375 201.480469 37.5 174.535156 37.5 Z M 174.535156 37.5 " clip-rule="nonzero"/></clipPath><clipPath id="50860817c2"><path d="M 187.5 74.863281 L 198.929688 74.863281 L 198.929688 86.292969 L 187.5 86.292969 Z M 187.5 74.863281 " clip-rule="nonzero"/></clipPath><clipPath id="5bd796fa41"><path d="M 193.214844 74.863281 C 190.058594 74.863281 187.5 77.421875 187.5 80.578125 C 187.5 83.734375 190.058594 86.292969 193.214844 86.292969 C 196.371094 86.292969 198.929688 83.734375 198.929688 80.578125 C 198.929688 77.421875 196.371094 74.863281 193.214844 74.863281 Z M 193.214844 74.863281 " clip-rule="nonzero"/></clipPath></defs><g clip-path="url(#3fa9cd3f57)"><g clip-path="url(#5fd63633f7)"><path fill="#ffffff" d="M 125.746094 37.5 L 223.328125 37.5 L 223.328125 135.085938 L 125.746094 135.085938 Z M 125.746094 37.5 " fill-opacity="1" fill-rule="nonzero"/></g></g><g clip-path="url(#87d26f5611)"><g clip-path="url(#b574605183)"><path stroke-linecap="butt" transform="matrix(0.75, 0, 0, 0.75, 125.744367, 37.499998)" fill="none" stroke-linejoin="miter" d="M 65.054389 0.00000328333 C 29.127304 0.00000328333 0.00230174 29.125005 0.00230174 65.052091 C 0.00230174 100.984385 29.127304 130.109387 65.054389 130.109387 C 100.981475 130.109387 130.111685 100.984385 130.111685 65.052091 C 130.111685 29.125005 100.981475 0.00000328333 65.054389 0.00000328333 Z M 65.054389 0.00000328333 " stroke="#000000" stroke-width="14" stroke-opacity="1" stroke-miterlimit="4"/></g></g><path stroke-linecap="butt" transform="matrix(-0.000972419, 0.749999, -0.749999, -0.000972419, 177.1578, 135.093082)" fill="none" stroke-linejoin="miter" d="M 0.000222536 3.50207 L 319.885922 3.498777 " stroke="#000000" stroke-width="7" stroke-opacity="1" stroke-miterlimit="4"/><path stroke-linecap="butt" transform="matrix(0.75, 0, 0, 0.75, 174.537077, 369.749976)" fill="none" stroke-linejoin="miter" d="M -0.00256105 3.500033 L 49.809942 3.500033 " stroke="#000000" stroke-width="7" stroke-opacity="1" stroke-miterlimit="4"/><path stroke-linecap="butt" transform="matrix(-0.189805, -0.725585, 0.725585, -0.189805, 172.098363, 266.646251)" fill="none" stroke-linejoin="miter" d="M 1.799609 47.543858 C 99.815931 -11.182297 155.513977 -11.180269 168.895068 47.544902 " stroke="#000000" stroke-width="7" stroke-opacity="1" stroke-miterlimit="4"/><g clip-path="url(#50860817c2)"><g clip-path="url(#5bd796fa41)"><path fill="#000000" d="M 187.5 74.863281 L 198.929688 74.863281 L 198.929688 86.292969 L 187.5 86.292969 Z M 187.5 74.863281 " fill-opacity="1" fill-rule="nonzero"/></g></g><path stroke-linecap="butt" transform="matrix(0.75, 0, 0, 0.75, 223.329775, 83.667695)" fill="none" stroke-linejoin="miter" d="M -0.00219951 3.500365 L 30.685303 3.500365 " stroke="#000000" stroke-width="7" stroke-opacity="1" stroke-miterlimit="4"/></svg>