<svg xmlns="http://www.w3.org/2000/svg" xmlns:xlink="http://www.w3.org/1999/xlink" width="500" zoomAndPan="magnify" viewBox="0 0 375 374.999991" height="500" preserveAspectRatio="xMidYMid meet" version="1.0"><defs><clipPath id="2949dcebd1"><path d="M 223 160 L 322 160 L 322 259 L 223 259 Z M 223 160 " clip-rule="nonzero"/></clipPath><clipPath id="626b4246c2"><path d="M 203.925781 203.941406 L 278.339844 140.808594 L 341.472656 215.222656 L 267.058594 278.355469 Z M 203.925781 203.941406 " clip-rule="nonzero"/></clipPath><clipPath id="8e6cb90a4c"><path d="M 241.132812 172.375 C 220.585938 189.808594 218.058594 220.597656 235.492188 241.148438 C 252.925781 261.695312 283.714844 264.222656 304.265625 246.789062 C 324.8125 229.355469 327.339844 198.566406 309.90625 178.015625 C 292.472656 157.46875 261.683594 154.941406 241.132812 172.375 Z M 241.132812 172.375 " clip-rule="nonzero"/></clipPath><clipPath id="89842dc3e8"><path d="M 223 160 L 322 160 L 322 259 L 223 259 Z M 223 160 " clip-rule="nonzero"/></clipPath><clipPath id="981ec95642"><path d="M 203.925781 203.941406 L 278.277344 140.867188 L 341.351562 215.214844 L 267.003906 278.289062 Z M 203.925781 203.941406 " clip-rule="nonzero"/></clipPath><clipPath id="040060df58"><path d="M 203.925781 203.941406 L 278.339844 140.8125 L 341.464844 215.222656 L 267.054688 278.351562 Z M 203.925781 203.941406 " clip-rule="nonzero"/></clipPath><clipPath id="684012e416"><path d="M 241.132812 172.375 C 220.585938 189.808594 218.058594 220.597656 235.492188 241.148438 C 252.921875 261.695312 283.714844 264.21875 304.261719 246.789062 C 324.808594 229.355469 327.335938 198.566406 309.902344 178.019531 C 292.46875 157.46875 261.679688 154.945312 241.132812 172.375 Z M 241.132812 172.375 " clip-rule="nonzero"/></clipPath><clipPath id="398398365f"><path d="M 277 187 L 289 187 L 289 199 L 277 199 Z M 277 187 " clip-rule="nonzero"/></clipPath><clipPath id="0cee588132"><path d="M 275.191406 192.480469 L 283.90625 185.085938 L 291.300781 193.800781 L 282.585938 201.195312 Z M 275.191406 192.480469 " clip-rule="nonzero"/></clipPath><clipPath id="8c5d800bd7"><path d="M 279.546875 188.785156 C 277.140625 190.824219 276.84375 194.433594 278.886719 196.839844 C 280.929688 199.246094 284.535156 199.542969 286.941406 197.5 C 289.347656 195.457031 289.644531 191.851562 287.601562 189.445312 C 285.5625 187.039062 281.953125 186.742188 279.546875 188.785156 Z M 279.546875 188.785156 " clip-rule="nonzero"/></clipPath><clipPath id="72f1117c5d"><path d="M 310.113281 236.421875 L 315.960938 236.421875 L 315.960938 242.273438 L 310.113281 242.273438 Z M 310.113281 236.421875 " clip-rule="nonzero"/></clipPath><clipPath id="22b89d7345"><path d="M 313.039062 236.421875 C 311.421875 236.421875 310.113281 237.730469 310.113281 239.347656 C 310.113281 240.960938 311.421875 242.273438 313.039062 242.273438 C 314.652344 242.273438 315.960938 240.960938 315.960938 239.347656 C 315.960938 237.730469 314.652344 236.421875 313.039062 236.421875 Z M 313.039062 236.421875 " clip-rule="nonzero"/></clipPath><clipPath id="b8f08eea94"><path d="M 85.199219 365.894531 L 89.703125 365.894531 L 89.703125 370.398438 L 85.199219 370.398438 Z M 85.199219 365.894531 " clip-rule="nonzero"/></clipPath><clipPath id="9210c5fbd6"><path d="M 87.449219 365.894531 C 86.207031 365.894531 85.199219 366.902344 85.199219 368.144531 C 85.199219 369.390625 86.207031 370.398438 87.449219 370.398438 C 88.695312 370.398438 89.703125 369.390625 89.703125 368.144531 C 89.703125 366.902344 88.695312 365.894531 87.449219 365.894531 Z M 87.449219 365.894531 " clip-rule="nonzero"/></clipPath></defs><path stroke-linecap="butt" transform="matrix(-0.662954, 0.350702, -0.350702, -0.662954, 360.133956, 319.131279)" fill="none" stroke-linejoin="miter" d="M 5.759846 123.410299 C -15.169757 -36.468711 109.11374 -36.467832 378.605733 123.4105 " stroke="#000000" stroke-width="7" stroke-opacity="1" stroke-miterlimit="4"/><path stroke-linecap="butt" transform="matrix(-0.743125, -0.101316, 0.101316, -0.743125, 104.447033, 372.011049)" fill="none" stroke-linejoin="miter" d="M 2.832207 2.057241 C 9.608748 11.39406 16.383878 11.390241 23.159005 2.056102 " stroke="#000000" stroke-width="7" stroke-opacity="1" stroke-miterlimit="4"/><path stroke-linecap="butt" transform="matrix(-0.0149243, -0.749851, 0.749851, -0.0149243, 305.677484, 370.151284)" fill="none" stroke-linejoin="miter" d="M 0.00188883 3.49846 L 175.885683 3.498372 " stroke="#000000" stroke-width="7" stroke-opacity="1" stroke-miterlimit="4"/><g clip-path="url(#2949dcebd1)"><g clip-path="url(#626b4246c2)"><g clip-path="url(#8e6cb90a4c)"><path fill="#ffffff" d="M 203.925781 203.941406 L 278.339844 140.808594 L 341.472656 215.222656 L 267.058594 278.355469 Z M 203.925781 203.941406 " fill-opacity="1" fill-rule="nonzero"/></g></g></g><g clip-path="url(#89842dc3e8)"><g clip-path="url(#981ec95642)"><g clip-path="url(#040060df58)"><g clip-path="url(#684012e416)"><path stroke-linecap="butt" transform="matrix(0.571914, -0.485195, 0.485195, 0.571914, 203.926983, 203.941071)" fill="none" stroke-linejoin="miter" d="M 65.056436 -0.00171995 C 29.128003 0.000519504 0.000642871 29.124846 -0.000487094 65.057251 C -0.00221927 100.982315 29.129448 130.109072 65.054512 130.110805 C 100.982945 130.108565 130.110305 100.984239 130.108066 65.055806 C 130.109196 29.1234 100.9815 0.0000122295 65.056436 -0.00171995 Z M 65.056436 -0.00171995 " stroke="#000000" stroke-width="14" stroke-opacity="1" stroke-miterlimit="4"/></g></g></g></g><g clip-path="url(#398398365f)"><g clip-path="url(#0cee588132)"><g clip-path="url(#8c5d800bd7)"><path fill="#000000" d="M 275.191406 192.480469 L 283.90625 185.085938 L 291.300781 193.800781 L 282.585938 201.195312 Z M 275.191406 192.480469 " fill-opacity="1" fill-rule="nonzero"/></g></g></g><path stroke-linecap="butt" transform="matrix(0.571914, -0.485196, 0.485196, 0.571914, 308.208032, 176.015657)" fill="none" stroke-linejoin="miter" d="M 0.00152618 3.49827 L 30.682893 3.497821 " stroke="#000000" stroke-width="7" stroke-opacity="1" stroke-miterlimit="4"/><g clip-path="url(#72f1117c5d)"><g clip-path="url(#22b89d7345)"><path fill="#222222" d="M 310.113281 236.421875 L 315.960938 236.421875 L 315.960938 242.273438 L 310.113281 242.273438 Z M 310.113281 236.421875 " fill-opacity="1" fill-rule="nonzero"/></g></g><g clip-path="url(#b8f08eea94)"><g clip-path="url(#9210c5fbd6)"><path fill="#222222" d="M 85.199219 365.894531 L 89.703125 365.894531 L 89.703125 370.398438 L 85.199219 370.398438 Z M 85.199219 365.894531 " fill-opacity="1" fill-rule="nonzero"/></g></g><path stroke-linecap="butt" transform="matrix(-0.749999, 0.00118606, -0.00118606, -0.749999, 338.713693, 372.997065)" fill="none" stroke-linejoin="miter" d="M -0.0018624 3.501297 L 44.039866 3.498028 " stroke="#000000" stroke-width="7" stroke-opacity="1" stroke-miterlimit="4"/></svg>