<svg xmlns="http://www.w3.org/2000/svg" xmlns:xlink="http://www.w3.org/1999/xlink" width="500" zoomAndPan="magnify" viewBox="0 0 375 374.999991" height="500" preserveAspectRatio="xMidYMid meet" version="1.0"><defs><clipPath id="daf3540896"><path d="M 226 257 L 324 257 L 324 355 L 226 355 Z M 226 257 " clip-rule="nonzero"/></clipPath><clipPath id="8218f59963"><path d="M 343.820312 303.792969 L 277 374.910156 L 205.882812 308.089844 L 272.703125 236.972656 Z M 343.820312 303.792969 " clip-rule="nonzero"/></clipPath><clipPath id="b22a0d79b6"><path d="M 310.410156 339.351562 C 328.863281 319.710938 327.902344 288.832031 308.261719 270.382812 C 288.625 251.929688 257.746094 252.890625 239.292969 272.53125 C 220.839844 292.167969 221.800781 323.046875 241.441406 341.5 C 261.078125 359.953125 291.957031 358.992188 310.410156 339.351562 Z M 310.410156 339.351562 " clip-rule="nonzero"/></clipPath><clipPath id="feef813ed9"><path d="M 226 257 L 324 257 L 324 355 L 226 355 Z M 226 257 " clip-rule="nonzero"/></clipPath><clipPath id="379c343b3e"><path d="M 343.820312 303.792969 L 277.058594 374.847656 L 206.003906 308.085938 L 272.765625 237.03125 Z M 343.820312 303.792969 " clip-rule="nonzero"/></clipPath><clipPath id="4652bfcba3"><path d="M 343.820312 303.792969 L 277 374.90625 L 205.886719 308.089844 L 272.707031 236.972656 Z M 343.820312 303.792969 " clip-rule="nonzero"/></clipPath><clipPath id="bebc2b097a"><path d="M 310.410156 339.351562 C 328.863281 319.710938 327.902344 288.835938 308.261719 270.382812 C 288.625 251.929688 257.746094 252.894531 239.296875 272.53125 C 220.84375 292.167969 221.804688 323.046875 241.445312 341.5 C 261.082031 359.949219 291.960938 358.988281 310.410156 339.351562 Z M 310.410156 339.351562 " clip-rule="nonzero"/></clipPath><clipPath id="39fe57feb7"><path d="M 260 317 L 272 317 L 272 330 L 260 330 Z M 260 317 " clip-rule="nonzero"/></clipPath><clipPath id="39d226899f"><path d="M 274.304688 323.214844 L 266.476562 331.542969 L 258.148438 323.71875 L 265.976562 315.386719 Z M 274.304688 323.214844 " clip-rule="nonzero"/></clipPath><clipPath id="ffecbb1259"><path d="M 270.390625 327.378906 C 272.554688 325.078125 272.441406 321.460938 270.140625 319.300781 C 267.839844 317.140625 264.222656 317.253906 262.0625 319.554688 C 259.898438 321.851562 260.011719 325.46875 262.3125 327.632812 C 264.613281 329.792969 268.230469 329.679688 270.390625 327.378906 Z M 270.390625 327.378906 " clip-rule="nonzero"/></clipPath><clipPath id="b227d70804"><path d="M 185.304688 182.90625 L 192.09375 182.90625 L 192.09375 189.695312 L 185.304688 189.695312 Z M 185.304688 182.90625 " clip-rule="nonzero"/></clipPath><clipPath id="b60cc75912"><path d="M 188.699219 182.90625 C 186.824219 182.90625 185.304688 184.425781 185.304688 186.300781 C 185.304688 188.175781 186.824219 189.695312 188.699219 189.695312 C 190.574219 189.695312 192.09375 188.175781 192.09375 186.300781 C 192.09375 184.425781 190.574219 182.90625 188.699219 182.90625 Z M 188.699219 182.90625 " clip-rule="nonzero"/></clipPath><clipPath id="7a38dcbe63"><path d="M 335.210938 369.875 L 339.789062 369.875 L 339.789062 374.453125 L 335.210938 374.453125 Z M 335.210938 369.875 " clip-rule="nonzero"/></clipPath><clipPath id="e6f0609339"><path d="M 337.5 369.875 C 336.234375 369.875 335.210938 370.898438 335.210938 372.164062 C 335.210938 373.425781 336.234375 374.453125 337.5 374.453125 C 338.765625 374.453125 339.789062 373.425781 339.789062 372.164062 C 339.789062 370.898438 338.765625 369.875 337.5 369.875 Z M 337.5 369.875 " clip-rule="nonzero"/></clipPath><clipPath id="c4bc319e84"><path d="M 21.050781 367.664062 L 27.835938 367.664062 L 27.835938 374.453125 L 21.050781 374.453125 Z M 21.050781 367.664062 " clip-rule="nonzero"/></clipPath><clipPath id="12ffaa6efb"><path d="M 24.445312 367.664062 C 22.570312 367.664062 21.050781 369.183594 21.050781 371.058594 C 21.050781 372.933594 22.570312 374.453125 24.445312 374.453125 C 26.316406 374.453125 27.835938 372.933594 27.835938 371.058594 C 27.835938 369.183594 26.316406 367.664062 24.445312 367.664062 Z M 24.445312 367.664062 " clip-rule="nonzero"/></clipPath></defs><path stroke-linecap="butt" transform="matrix(-0.498992, 0.559917, -0.559917, -0.498992, 189.454636, 189.248733)" fill="none" stroke-linejoin="miter" d="M 0.000600486 3.497379 C 109.938213 3.499919 219.868471 3.502036 329.802618 3.500688 " stroke="#000000" stroke-width="7" stroke-opacity="1" stroke-miterlimit="4"/><path stroke-linecap="butt" transform="matrix(0.75, 0, 0, 0.75, 337.499982, 369.202154)" fill="none" stroke-linejoin="miter" d="M 0.00002355 3.501295 L 49.807318 3.501295 " stroke="#000000" stroke-width="7" stroke-opacity="1" stroke-miterlimit="4"/><g clip-path="url(#daf3540896)"><g clip-path="url(#8218f59963)"><g clip-path="url(#b22a0d79b6)"><path fill="#ffffff" d="M 343.820312 303.792969 L 277 374.910156 L 205.882812 308.089844 L 272.703125 236.972656 Z M 343.820312 303.792969 " fill-opacity="1" fill-rule="nonzero"/></g></g></g><g clip-path="url(#feef813ed9)"><g clip-path="url(#379c343b3e)"><g clip-path="url(#4652bfcba3)"><g clip-path="url(#bebc2b097a)"><path stroke-linecap="butt" transform="matrix(-0.513562, 0.546584, -0.546584, -0.513562, 343.821047, 303.79246)" fill="none" stroke-linejoin="miter" d="M 65.057072 0.0000780491 C 29.124491 0.000969732 0.000443924 29.123576 0.00133561 65.056157 C -0.00133912 100.984942 29.128629 130.109218 65.053848 130.108097 C 100.982633 130.110772 130.110476 100.9846 130.109584 65.052019 C 130.108463 29.1268 100.982291 -0.00104295 65.057072 0.0000780491 Z M 65.057072 0.0000780491 " stroke="#000000" stroke-width="14" stroke-opacity="1" stroke-miterlimit="4"/></g></g></g></g><g clip-path="url(#39fe57feb7)"><g clip-path="url(#39d226899f)"><g clip-path="url(#ffecbb1259)"><path fill="#000000" d="M 274.304688 323.214844 L 266.476562 331.542969 L 258.148438 323.71875 L 265.976562 315.386719 Z M 274.304688 323.214844 " fill-opacity="1" fill-rule="nonzero"/></g></g></g><path stroke-linecap="butt" transform="matrix(-0.513562, 0.546584, -0.546584, -0.513562, 243.353456, 343.297273)" fill="none" stroke-linejoin="miter" d="M -0.000718936 3.498857 L 30.681188 3.500225 " stroke="#000000" stroke-width="7" stroke-opacity="1" stroke-miterlimit="4"/><path stroke-linecap="butt" transform="matrix(0.467832, 0.586202, -0.586202, 0.467832, 192.176536, 185.862921)" fill="none" stroke-linejoin="miter" d="M -0.000205952 3.499543 C 105.005576 3.499709 210.011359 3.499875 315.017141 3.500041 " stroke="#000000" stroke-width="7" stroke-opacity="1" stroke-miterlimit="4"/><g clip-path="url(#b227d70804)"><g clip-path="url(#b60cc75912)"><path fill="#000000" d="M 185.304688 182.90625 L 192.09375 182.90625 L 192.09375 189.695312 L 185.304688 189.695312 Z M 185.304688 182.90625 " fill-opacity="1" fill-rule="nonzero"/></g></g><g clip-path="url(#7a38dcbe63)"><g clip-path="url(#e6f0609339)"><path fill="#000000" d="M 335.210938 369.875 L 339.789062 369.875 L 339.789062 374.453125 L 335.210938 374.453125 Z M 335.210938 369.875 " fill-opacity="1" fill-rule="nonzero"/></g></g><path stroke-linecap="butt" transform="matrix(0.75, 0, 0, 0.75, 22.930055, 369.202154)" fill="none" stroke-linejoin="miter" d="M -0.000490526 3.501295 L 49.806804 3.501295 " stroke="#000000" stroke-width="7" stroke-opacity="1" stroke-miterlimit="4"/><g clip-path="url(#c4bc319e84)"><g clip-path="url(#12ffaa6efb)"><path fill="#000000" d="M 21.050781 367.664062 L 27.835938 367.664062 L 27.835938 374.453125 L 21.050781 374.453125 Z M 21.050781 367.664062 " fill-opacity="1" fill-rule="nonzero"/></g></g></svg>