<svg xmlns="http://www.w3.org/2000/svg" xmlns:xlink="http://www.w3.org/1999/xlink" width="500" zoomAndPan="magnify" viewBox="0 0 375 374.999991" height="500" preserveAspectRatio="xMidYMid meet" version="1.0"><defs><clipPath id="b109efbdb9"><path d="M 142 37 L 240 37 L 240 136 L 142 136 Z M 142 37 " clip-rule="nonzero"/></clipPath><clipPath id="8eb04bd5ae"><path d="M 122.410156 95.542969 L 181.957031 18.230469 L 259.269531 77.777344 L 199.722656 155.089844 Z M 122.410156 95.542969 " clip-rule="nonzero"/></clipPath><clipPath id="7585209de8"><path d="M 152.183594 56.886719 C 135.742188 78.234375 139.71875 108.871094 161.066406 125.316406 C 182.414062 141.757812 213.050781 137.78125 229.496094 116.433594 C 245.9375 95.085938 241.960938 64.449219 220.613281 48.003906 C 199.265625 31.5625 168.628906 35.539062 152.183594 56.886719 Z M 152.183594 56.886719 " clip-rule="nonzero"/></clipPath><clipPath id="3e7f5d4bf2"><path d="M 142 37 L 240 37 L 240 136 L 142 136 Z M 142 37 " clip-rule="nonzero"/></clipPath><clipPath id="3602a6507b"><path d="M 122.410156 95.542969 L 181.90625 18.296875 L 259.148438 77.792969 L 199.652344 155.039062 Z M 122.410156 95.542969 " clip-rule="nonzero"/></clipPath><clipPath id="b7190ead71"><path d="M 122.410156 95.542969 L 181.957031 18.234375 L 259.265625 77.777344 L 199.71875 155.085938 Z M 122.410156 95.542969 " clip-rule="nonzero"/></clipPath><clipPath id="46398ba951"><path d="M 152.183594 56.886719 C 135.738281 78.234375 139.714844 108.871094 161.066406 125.316406 C 182.414062 141.757812 213.046875 137.78125 229.492188 116.433594 C 245.933594 95.085938 241.957031 64.449219 220.609375 48.007812 C 199.261719 31.5625 168.625 35.539062 152.183594 56.886719 Z M 152.183594 56.886719 " clip-rule="nonzero"/></clipPath><clipPath id="657adb4e9c"><path d="M 191 62 L 204 62 L 204 75 L 191 75 Z M 191 62 " clip-rule="nonzero"/></clipPath><clipPath id="784cfe3134"><path d="M 189.695312 69.414062 L 196.667969 60.359375 L 205.722656 67.335938 L 198.75 76.390625 Z M 189.695312 69.414062 " clip-rule="nonzero"/></clipPath><clipPath id="02ec25c948"><path d="M 193.179688 64.886719 C 191.253906 67.386719 191.722656 70.976562 194.222656 72.902344 C 196.722656 74.828125 200.3125 74.363281 202.238281 71.863281 C 204.164062 69.363281 203.699219 65.773438 201.195312 63.847656 C 198.695312 61.921875 195.109375 62.386719 193.179688 64.886719 Z M 193.179688 64.886719 " clip-rule="nonzero"/></clipPath><clipPath id="c4cb1cdf29"><path d="M 21.5 369.042969 L 26.90625 369.042969 L 26.90625 374.453125 L 21.5 374.453125 Z M 21.5 369.042969 " clip-rule="nonzero"/></clipPath><clipPath id="07491c3780"><path d="M 24.203125 369.042969 C 22.710938 369.042969 21.5 370.253906 21.5 371.75 C 21.5 373.242188 22.710938 374.453125 24.203125 374.453125 C 25.695312 374.453125 26.90625 373.242188 26.90625 371.75 C 26.90625 370.253906 25.695312 369.042969 24.203125 369.042969 Z M 24.203125 369.042969 " clip-rule="nonzero"/></clipPath></defs><path stroke-linecap="butt" transform="matrix(-0.456205, 0.595296, -0.595296, -0.456205, 271.307418, 175.695281)" fill="none" stroke-linejoin="miter" d="M 3.278221 103.525478 C 53.388017 -29.839446 188.752607 -29.83957 409.371992 103.525104 " stroke="#000000" stroke-width="7" stroke-opacity="1" stroke-miterlimit="4"/><path stroke-linecap="butt" transform="matrix(0.75, 0, 0, 0.75, 337.499982, 369.202154)" fill="none" stroke-linejoin="miter" d="M 0.00002355 3.501295 L 49.807318 3.501295 " stroke="#000000" stroke-width="7" stroke-opacity="1" stroke-miterlimit="4"/><g clip-path="url(#b109efbdb9)"><g clip-path="url(#8eb04bd5ae)"><g clip-path="url(#7585209de8)"><path fill="#ffffff" d="M 122.410156 95.542969 L 181.957031 18.230469 L 259.269531 77.777344 L 199.722656 155.089844 Z M 122.410156 95.542969 " fill-opacity="1" fill-rule="nonzero"/></g></g></g><g clip-path="url(#3e7f5d4bf2)"><g clip-path="url(#3602a6507b)"><g clip-path="url(#b7190ead71)"><g clip-path="url(#46398ba951)"><path stroke-linecap="butt" transform="matrix(0.457654, -0.594182, 0.594182, 0.457654, 122.41036, 95.542076)" fill="none" stroke-linejoin="miter" d="M 65.056317 -0.000114862 C 29.126241 -0.00307554 -0.000699633 29.123734 -0.000482158 65.057936 C 0.000683427 100.984834 29.124315 130.107648 65.054391 130.110609 C 100.981288 130.109443 130.108229 100.982633 130.107063 65.055736 C 130.110024 29.12566 100.983214 -0.00128045 65.056317 -0.000114862 Z M 65.056317 -0.000114862 " stroke="#000000" stroke-width="14" stroke-opacity="1" stroke-miterlimit="4"/></g></g></g></g><g clip-path="url(#657adb4e9c)"><g clip-path="url(#784cfe3134)"><g clip-path="url(#02ec25c948)"><path fill="#000000" d="M 189.695312 69.414062 L 196.667969 60.359375 L 205.722656 67.335938 L 198.75 76.390625 Z M 189.695312 69.414062 " fill-opacity="1" fill-rule="nonzero"/></g></g></g><path stroke-linecap="butt" transform="matrix(0.457654, -0.594182, 0.594182, 0.457654, 218.533569, 46.402523)" fill="none" stroke-linejoin="miter" d="M 0.000490302 3.499747 L 30.683239 3.501223 " stroke="#000000" stroke-width="7" stroke-opacity="1" stroke-miterlimit="4"/><path stroke-linecap="butt" transform="matrix(0.75, -0.000000000000000279, 0.000000000000000279, 0.75, 204.591349, 255.584926)" fill="none" stroke-linejoin="miter" d="M -0.00200655 3.501349 L 177.211547 3.501349 " stroke="#000000" stroke-width="7" stroke-opacity="1" stroke-miterlimit="4"/><path stroke-linecap="butt" transform="matrix(0.75, 0, 0, 0.75, 22.930055, 369.202154)" fill="none" stroke-linejoin="miter" d="M -0.000490526 3.501295 L 49.806804 3.501295 " stroke="#000000" stroke-width="7" stroke-opacity="1" stroke-miterlimit="4"/><g clip-path="url(#c4cb1cdf29)"><g clip-path="url(#07491c3780)"><path fill="#000000" d="M 21.5 369.042969 L 26.90625 369.042969 L 26.90625 374.453125 L 21.5 374.453125 Z M 21.5 369.042969 " fill-opacity="1" fill-rule="nonzero"/></g></g><path stroke-linecap="butt" transform="matrix(0.0147637, 0.749855, -0.749855, 0.0147637, 337.834319, 258.159768)" fill="none" stroke-linejoin="miter" d="M -0.000642009 3.498508 L 155.019003 3.497984 " stroke="#000000" stroke-width="7" stroke-opacity="1" stroke-miterlimit="4"/><path stroke-linecap="butt" transform="matrix(0.52365, 0.536927, -0.536927, 0.52365, 119.022073, 8.689921)" fill="none" stroke-linejoin="miter" d="M 1.567497 28.204368 C 67.44423 -4.73722 133.324544 -4.733196 199.204619 28.205438 " stroke="#000000" stroke-width="7" stroke-opacity="1" stroke-miterlimit="4"/><path stroke-linecap="butt" transform="matrix(-0.288462, -0.692308, 0.692308, -0.288462, 117.362078, 31.908532)" fill="none" stroke-linejoin="miter" d="M 0.000588626 3.500248 L 20.798667 3.499447 " stroke="#000000" stroke-width="7" stroke-opacity="1" stroke-miterlimit="4"/><path stroke-linecap="butt" transform="matrix(0.687126, -0.300596, 0.300596, 0.687126, 103.647809, 35.09457)" fill="none" stroke-linejoin="miter" d="M -0.00108871 3.500236 L 21.955076 3.497877 " stroke="#000000" stroke-width="7" stroke-opacity="1" stroke-miterlimit="4"/></svg>