<svg xmlns="http://www.w3.org/2000/svg" xmlns:xlink="http://www.w3.org/1999/xlink" width="500" zoomAndPan="magnify" viewBox="0 0 375 374.999991" height="500" preserveAspectRatio="xMidYMid meet" version="1.0"><defs><clipPath id="71c7373443"><path d="M 268.644531 170.21875 L 366.230469 170.21875 L 366.230469 267.804688 L 268.644531 267.804688 Z M 268.644531 170.21875 " clip-rule="nonzero"/></clipPath><clipPath id="cd691e038f"><path d="M 268.644531 219.011719 C 268.644531 245.960938 290.492188 267.804688 317.4375 267.804688 C 344.386719 267.804688 366.230469 245.960938 366.230469 219.011719 C 366.230469 192.0625 344.386719 170.21875 317.4375 170.21875 C 290.492188 170.21875 268.644531 192.0625 268.644531 219.011719 Z M 268.644531 219.011719 " clip-rule="nonzero"/></clipPath><clipPath id="2121d9f627"><path d="M 268.644531 170.304688 L 366.144531 170.304688 L 366.144531 267.804688 L 268.644531 267.804688 Z M 268.644531 170.304688 " clip-rule="nonzero"/></clipPath><clipPath id="61536f1c50"><path d="M 268.644531 219.011719 C 268.644531 245.960938 290.492188 267.804688 317.4375 267.804688 C 344.382812 267.804688 366.226562 245.960938 366.226562 219.011719 C 366.226562 192.066406 344.382812 170.222656 317.4375 170.222656 C 290.492188 170.222656 268.644531 192.066406 268.644531 219.011719 Z M 268.644531 219.011719 " clip-rule="nonzero"/></clipPath><clipPath id="bfe72af48e"><path d="M 317.4375 194.617188 L 328.867188 194.617188 L 328.867188 206.046875 L 317.4375 206.046875 Z M 317.4375 194.617188 " clip-rule="nonzero"/></clipPath><clipPath id="30b0c9eaf6"><path d="M 317.4375 200.332031 C 317.4375 203.488281 319.996094 206.046875 323.152344 206.046875 C 326.308594 206.046875 328.867188 203.488281 328.867188 200.332031 C 328.867188 197.175781 326.308594 194.617188 323.152344 194.617188 C 319.996094 194.617188 317.4375 197.175781 317.4375 200.332031 Z M 317.4375 200.332031 " clip-rule="nonzero"/></clipPath><clipPath id="31a1e67a90"><path d="M 100.386719 215.039062 L 107.070312 215.039062 L 107.070312 221.722656 L 100.386719 221.722656 Z M 100.386719 215.039062 " clip-rule="nonzero"/></clipPath><clipPath id="55e15d7697"><path d="M 103.730469 215.039062 C 101.882812 215.039062 100.386719 216.535156 100.386719 218.378906 C 100.386719 220.226562 101.882812 221.722656 103.730469 221.722656 C 105.574219 221.722656 107.070312 220.226562 107.070312 218.378906 C 107.070312 216.535156 105.574219 215.039062 103.730469 215.039062 Z M 103.730469 215.039062 " clip-rule="nonzero"/></clipPath><clipPath id="92d558acca"><path d="M 222.09375 369.867188 L 228.777344 369.867188 L 228.777344 375 L 222.09375 375 Z M 222.09375 369.867188 " clip-rule="nonzero"/></clipPath><clipPath id="7b692c6aaf"><path d="M 225.4375 369.867188 C 223.589844 369.867188 222.09375 371.363281 222.09375 373.210938 C 222.09375 375.054688 223.589844 376.550781 225.4375 376.550781 C 227.28125 376.550781 228.777344 375.054688 228.777344 373.210938 C 228.777344 371.363281 227.28125 369.867188 225.4375 369.867188 Z M 225.4375 369.867188 " clip-rule="nonzero"/></clipPath><clipPath id="5aadfad178"><path d="M 12.292969 369.867188 L 18.976562 369.867188 L 18.976562 375 L 12.292969 375 Z M 12.292969 369.867188 " clip-rule="nonzero"/></clipPath><clipPath id="2e8d155836"><path d="M 15.636719 369.867188 C 13.789062 369.867188 12.292969 371.363281 12.292969 373.210938 C 12.292969 375.054688 13.789062 376.550781 15.636719 376.550781 C 17.480469 376.550781 18.976562 375.054688 18.976562 373.210938 C 18.976562 371.363281 17.480469 369.867188 15.636719 369.867188 Z M 15.636719 369.867188 " clip-rule="nonzero"/></clipPath></defs><path stroke-linecap="butt" transform="matrix(-0.75, 0, 0, -0.75, 271.260075, 221.004389)" fill="none" stroke-linejoin="miter" d="M -0.00219102 3.500643 L 223.388449 3.500643 " stroke="#000000" stroke-width="7" stroke-opacity="1" stroke-miterlimit="4"/><path stroke-linecap="butt" transform="matrix(0.75, 0, 0, 0.75, 225.437289, 369.749976)" fill="none" stroke-linejoin="miter" d="M 0.000281472 3.500033 L 49.807576 3.500033 " stroke="#000000" stroke-width="7" stroke-opacity="1" stroke-miterlimit="4"/><g clip-path="url(#71c7373443)"><g clip-path="url(#cd691e038f)"><path fill="#ffffff" d="M 268.644531 267.804688 L 268.644531 170.21875 L 366.230469 170.21875 L 366.230469 267.804688 Z M 268.644531 267.804688 " fill-opacity="1" fill-rule="nonzero"/></g></g><g clip-path="url(#2121d9f627)"><g clip-path="url(#61536f1c50)"><path stroke-linecap="butt" transform="matrix(0, -0.75, 0.75, 0, 268.646149, 267.804446)" fill="none" stroke-linejoin="miter" d="M 65.056973 -0.00215735 C 29.124679 -0.00215735 -0.000322514 29.128053 -0.000322514 65.055139 C -0.000322514 100.982224 29.124679 130.107226 65.056973 130.107226 C 100.984059 130.107226 130.109061 100.982224 130.109061 65.055139 C 130.109061 29.128053 100.984059 -0.00215735 65.056973 -0.00215735 Z M 65.056973 -0.00215735 " stroke="#000000" stroke-width="14" stroke-opacity="1" stroke-miterlimit="4"/></g></g><g clip-path="url(#bfe72af48e)"><g clip-path="url(#30b0c9eaf6)"><path fill="#000000" d="M 317.4375 206.046875 L 317.4375 194.617188 L 328.867188 194.617188 L 328.867188 206.046875 Z M 317.4375 206.046875 " fill-opacity="1" fill-rule="nonzero"/></g></g><path stroke-linecap="butt" transform="matrix(0, -0.75, 0.75, 0, 314.809585, 170.218114)" fill="none" stroke-linejoin="miter" d="M -0.000847437 3.498679 L 30.681446 3.498679 " stroke="#000000" stroke-width="7" stroke-opacity="1" stroke-miterlimit="4"/><path stroke-linecap="butt" transform="matrix(0.459991, 0.592375, -0.592375, 0.459991, 105.800623, 216.77256)" fill="none" stroke-linejoin="miter" d="M -0.00031447 3.50102 L 264.589002 3.497379 " stroke="#000000" stroke-width="7" stroke-opacity="1" stroke-miterlimit="4"/><g clip-path="url(#31a1e67a90)"><g clip-path="url(#55e15d7697)"><path fill="#000000" d="M 100.386719 215.039062 L 107.070312 215.039062 L 107.070312 221.722656 L 100.386719 221.722656 Z M 100.386719 215.039062 " fill-opacity="1" fill-rule="nonzero"/></g></g><path stroke-linecap="butt" transform="matrix(0, -0.75, 0.75, 0, 266.020504, 376.551537)" fill="none" stroke-linejoin="miter" d="M 0.0010075 3.498703 L 391.829158 3.498703 " stroke="#000000" stroke-width="7" stroke-opacity="1" stroke-miterlimit="4"/><path stroke-linecap="butt" transform="matrix(0.75, 0, 0, 0.75, 14.584888, 369.749976)" fill="none" stroke-linejoin="miter" d="M 0.00139962 3.500033 L 49.808695 3.500033 " stroke="#000000" stroke-width="7" stroke-opacity="1" stroke-miterlimit="4"/><path stroke-linecap="butt" transform="matrix(-0.374219, 0.649969, -0.649969, -0.374219, 105.998105, 219.692417)" fill="none" stroke-linejoin="miter" d="M 0.000558976 3.500535 L 238.215072 3.500636 " stroke="#000000" stroke-width="7" stroke-opacity="1" stroke-miterlimit="4"/><g clip-path="url(#92d558acca)"><g clip-path="url(#7b692c6aaf)"><path fill="#000000" d="M 222.09375 369.867188 L 228.777344 369.867188 L 228.777344 376.550781 L 222.09375 376.550781 Z M 222.09375 369.867188 " fill-opacity="1" fill-rule="nonzero"/></g></g><g clip-path="url(#5aadfad178)"><g clip-path="url(#2e8d155836)"><path fill="#000000" d="M 12.292969 369.867188 L 18.976562 369.867188 L 18.976562 376.550781 L 12.292969 376.550781 Z M 12.292969 369.867188 " fill-opacity="1" fill-rule="nonzero"/></g></g><path stroke-linecap="butt" transform="matrix(0.502804, 0.556496, -0.556496, 0.502804, 256.957488, 82.681936)" fill="none" stroke-linejoin="miter" d="M -0.00207417 3.50161 L 25.600594 3.498249 " stroke="#000000" stroke-width="7" stroke-opacity="1" stroke-miterlimit="4"/><path stroke-linecap="butt" transform="matrix(0.53033, -0.53033, 0.53033, 0.53033, 266.939049, 96.894318)" fill="none" stroke-linejoin="miter" d="M 0.00202145 3.50113 L 25.601498 3.497447 " stroke="#000000" stroke-width="7" stroke-opacity="1" stroke-miterlimit="4"/><path stroke-linecap="butt" transform="matrix(-0.514746, -0.545469, 0.545469, -0.514746, 280.711186, 374.521967)" fill="none" stroke-linejoin="miter" d="M 0.000857491 3.502213 L 25.603672 3.500849 " stroke="#000000" stroke-width="7" stroke-opacity="1" stroke-miterlimit="4"/><path stroke-linecap="butt" transform="matrix(-0.518713, 0.541698, -0.541698, -0.518713, 270.424, 360.529253)" fill="none" stroke-linejoin="miter" d="M 0.00170179 3.499685 L 25.599856 3.498309 " stroke="#000000" stroke-width="7" stroke-opacity="1" stroke-miterlimit="4"/></svg>