<svg xmlns="http://www.w3.org/2000/svg" xmlns:xlink="http://www.w3.org/1999/xlink" width="500" zoomAndPan="magnify" viewBox="0 0 375 374.999991" height="500" preserveAspectRatio="xMidYMid meet" version="1.0"><defs><clipPath id="11ba706068"><path d="M 138.996094 37.5 L 236.582031 37.5 L 236.582031 135.085938 L 138.996094 135.085938 Z M 138.996094 37.5 " clip-rule="nonzero"/></clipPath><clipPath id="df091a4bfa"><path d="M 187.789062 37.5 C 160.839844 37.5 138.996094 59.34375 138.996094 86.292969 C 138.996094 113.238281 160.839844 135.085938 187.789062 135.085938 C 214.738281 135.085938 236.582031 113.238281 236.582031 86.292969 C 236.582031 59.34375 214.738281 37.5 187.789062 37.5 Z M 187.789062 37.5 " clip-rule="nonzero"/></clipPath><clipPath id="884c9e8024"><path d="M 138.996094 37.5 L 236.496094 37.5 L 236.496094 135 L 138.996094 135 Z M 138.996094 37.5 " clip-rule="nonzero"/></clipPath><clipPath id="c55f1a369d"><path d="M 187.789062 37.5 C 160.839844 37.5 138.996094 59.34375 138.996094 86.289062 C 138.996094 113.238281 160.839844 135.082031 187.789062 135.082031 C 214.734375 135.082031 236.578125 113.238281 236.578125 86.289062 C 236.578125 59.34375 214.734375 37.5 187.789062 37.5 Z M 187.789062 37.5 " clip-rule="nonzero"/></clipPath><clipPath id="58afd674ce"><path d="M 200.25 74.863281 L 211.679688 74.863281 L 211.679688 86.292969 L 200.25 86.292969 Z M 200.25 74.863281 " clip-rule="nonzero"/></clipPath><clipPath id="9cd37223b3"><path d="M 205.964844 74.863281 C 202.808594 74.863281 200.25 77.421875 200.25 80.578125 C 200.25 83.734375 202.808594 86.292969 205.964844 86.292969 C 209.121094 86.292969 211.679688 83.734375 211.679688 80.578125 C 211.679688 77.421875 209.121094 74.863281 205.964844 74.863281 Z M 205.964844 74.863281 " clip-rule="nonzero"/></clipPath></defs><path stroke-linecap="butt" transform="matrix(0, 0.75, -0.75, 0, 314.554114, 218.076036)" fill="none" stroke-linejoin="miter" d="M -0.00242311 3.499236 L 49.81008 3.499236 " stroke="#000000" stroke-width="7" stroke-opacity="1" stroke-miterlimit="4"/><g clip-path="url(#11ba706068)"><g clip-path="url(#df091a4bfa)"><path fill="#ffffff" d="M 138.996094 37.5 L 236.582031 37.5 L 236.582031 135.085938 L 138.996094 135.085938 Z M 138.996094 37.5 " fill-opacity="1" fill-rule="nonzero"/></g></g><g clip-path="url(#884c9e8024)"><g clip-path="url(#c55f1a369d)"><path stroke-linecap="butt" transform="matrix(0.75, 0, 0, 0.75, 138.996339, 37.499998)" fill="none" stroke-linejoin="miter" d="M 65.05697 0.00000328333 C 29.124675 0.00000328333 -0.00032643 29.125005 -0.00032643 65.052091 C -0.00032643 100.984385 29.124675 130.109387 65.05697 130.109387 C 100.984055 130.109387 130.109057 100.984385 130.109057 65.052091 C 130.109057 29.125005 100.984055 0.00000328333 65.05697 0.00000328333 Z M 65.05697 0.00000328333 " stroke="#000000" stroke-width="14" stroke-opacity="1" stroke-miterlimit="4"/></g></g><g clip-path="url(#58afd674ce)"><g clip-path="url(#9cd37223b3)"><path fill="#000000" d="M 200.25 74.863281 L 211.679688 74.863281 L 211.679688 86.292969 L 200.25 86.292969 Z M 200.25 74.863281 " fill-opacity="1" fill-rule="nonzero"/></g></g><path stroke-linecap="butt" transform="matrix(0.75, 0, 0, 0.75, 236.586947, 83.664319)" fill="none" stroke-linejoin="miter" d="M -0.00134542 3.499659 L 30.680948 3.499659 " stroke="#000000" stroke-width="7" stroke-opacity="1" stroke-miterlimit="4"/><path stroke-linecap="butt" transform="matrix(0.75, 0, 0, 0.75, 184.852639, 370.121196)" fill="none" stroke-linejoin="miter" d="M -0.00143502 3.499864 L 49.80586 3.499864 " stroke="#000000" stroke-width="7" stroke-opacity="1" stroke-miterlimit="4"/><path stroke-linecap="butt" transform="matrix(-0.00332669, 0.749993, -0.749993, -0.00332669, 191.169602, 135.097417)" fill="none" stroke-linejoin="miter" d="M 0.000228745 3.502211 C 79.620792 3.498005 184.330183 3.502306 314.128333 3.499491 " stroke="#000000" stroke-width="7" stroke-opacity="1" stroke-miterlimit="4"/><path stroke-linecap="butt" transform="matrix(0.0177208, -0.749791, 0.749791, 0.0177208, 133.967881, 249.984125)" fill="none" stroke-linejoin="miter" d="M 2.727498 67.804606 C 71.741809 -17.93332 121.536976 -17.932784 152.118084 67.800884 " stroke="#000000" stroke-width="7" stroke-opacity="1" stroke-miterlimit="4"/><path stroke-linecap="butt" transform="matrix(-0.75, 0, 0, -0.75, 314.556723, 258.052865)" fill="none" stroke-linejoin="miter" d="M -0.00249427 3.49757 C 42.58605 3.49757 98.591262 3.49757 168.01835 3.49757 " stroke="#000000" stroke-width="7" stroke-opacity="1" stroke-miterlimit="4"/><path stroke-linecap="butt" transform="matrix(0.74995, 0.00861421, -0.00861421, 0.74995, 167.600765, 231.175473)" fill="none" stroke-linejoin="miter" d="M -0.000396951 3.500647 L 28.386859 3.497519 " stroke="#000000" stroke-width="7" stroke-opacity="1" stroke-miterlimit="4"/><path stroke-linecap="butt" transform="matrix(0.151709, 0.734496, -0.734496, 0.151709, 170.138168, 233.276073)" fill="none" stroke-linejoin="miter" d="M 0.0017336 3.501754 L 26.609726 3.4985 " stroke="#000000" stroke-width="7" stroke-opacity="1" stroke-miterlimit="4"/></svg>