<svg xmlns="http://www.w3.org/2000/svg" xmlns:xlink="http://www.w3.org/1999/xlink" width="500" zoomAndPan="magnify" viewBox="0 0 375 374.999991" height="500" preserveAspectRatio="xMidYMid meet" version="1.0"><defs><clipPath id="82e99b6c79"><path d="M 114 52 L 212 52 L 212 151 L 114 151 Z M 114 52 " clip-rule="nonzero"/></clipPath><clipPath id="447286a7c0"><path d="M 104.15625 137.625 L 126.929688 42.734375 L 221.820312 65.507812 L 199.046875 160.398438 Z M 104.15625 137.625 " clip-rule="nonzero"/></clipPath><clipPath id="a633d185eb"><path d="M 115.542969 90.179688 C 109.253906 116.382812 125.394531 142.722656 151.601562 149.011719 C 177.804688 155.300781 204.144531 139.15625 210.433594 112.953125 C 216.722656 86.75 200.578125 60.410156 174.375 54.121094 C 148.171875 47.832031 121.832031 63.976562 115.542969 90.179688 Z M 115.542969 90.179688 " clip-rule="nonzero"/></clipPath><clipPath id="cb5394cd62"><path d="M 114 52 L 212 52 L 212 151 L 114 151 Z M 114 52 " clip-rule="nonzero"/></clipPath><clipPath id="a593b62b9d"><path d="M 104.15625 137.625 L 126.910156 42.816406 L 221.714844 65.570312 L 198.960938 160.378906 Z M 104.15625 137.625 " clip-rule="nonzero"/></clipPath><clipPath id="15a2e84235"><path d="M 104.15625 137.625 L 126.929688 42.734375 L 221.816406 65.511719 L 199.042969 160.398438 Z M 104.15625 137.625 " clip-rule="nonzero"/></clipPath><clipPath id="62373703e4"><path d="M 115.542969 90.179688 C 109.253906 116.382812 125.394531 142.722656 151.597656 149.011719 C 177.800781 155.300781 204.140625 139.15625 210.429688 112.953125 C 216.71875 86.75 200.574219 60.410156 174.371094 54.125 C 148.167969 47.835938 121.828125 63.976562 115.542969 90.179688 Z M 115.542969 90.179688 " clip-rule="nonzero"/></clipPath><clipPath id="514999fb71"><path d="M 148 79 L 160 79 L 160 92 L 148 92 Z M 148 79 " clip-rule="nonzero"/></clipPath><clipPath id="2b01c88c94"><path d="M 146.839844 89.917969 L 149.507812 78.800781 L 160.621094 81.46875 L 157.953125 92.585938 Z M 146.839844 89.917969 " clip-rule="nonzero"/></clipPath><clipPath id="93623b37e2"><path d="M 148.171875 84.359375 C 147.4375 87.429688 149.328125 90.511719 152.398438 91.25 C 155.464844 91.988281 158.550781 90.097656 159.289062 87.027344 C 160.023438 83.957031 158.132812 80.871094 155.066406 80.136719 C 151.996094 79.398438 148.910156 81.289062 148.171875 84.359375 Z M 148.171875 84.359375 " clip-rule="nonzero"/></clipPath></defs><path stroke-linecap="butt" transform="matrix(0.75, 0, 0, 0.75, 174.537077, 369.749976)" fill="none" stroke-linejoin="miter" d="M -0.00256105 3.500033 L 49.809942 3.500033 " stroke="#000000" stroke-width="7" stroke-opacity="1" stroke-miterlimit="4"/><g clip-path="url(#82e99b6c79)"><g clip-path="url(#447286a7c0)"><g clip-path="url(#a633d185eb)"><path fill="#ffffff" d="M 104.15625 137.625 L 126.929688 42.734375 L 221.820312 65.507812 L 199.046875 160.398438 Z M 104.15625 137.625 " fill-opacity="1" fill-rule="nonzero"/></g></g></g><g clip-path="url(#cb5394cd62)"><g clip-path="url(#a593b62b9d)"><g clip-path="url(#15a2e84235)"><g clip-path="url(#62373703e4)"><path stroke-linecap="butt" transform="matrix(0.175035, -0.729289, 0.729289, 0.175035, 104.154379, 137.623613)" fill="none" stroke-linejoin="miter" d="M 65.055554 0.00221834 C 29.125839 0.00205398 -0.00162824 29.124847 -0.00179261 65.054562 C -0.00195698 100.984276 29.1259 130.110528 65.055615 130.110692 C 100.98533 130.110857 130.111581 100.982999 130.106681 65.0545 C 130.106846 29.124785 100.984053 -0.0026818 65.055554 0.00221834 Z M 65.055554 0.00221834 " stroke="#000000" stroke-width="14" stroke-opacity="1" stroke-miterlimit="4"/></g></g></g></g><g clip-path="url(#514999fb71)"><g clip-path="url(#2b01c88c94)"><g clip-path="url(#93623b37e2)"><path fill="#000000" d="M 146.839844 89.917969 L 149.507812 78.800781 L 160.621094 81.46875 L 157.953125 92.585938 Z M 146.839844 89.917969 " fill-opacity="1" fill-rule="nonzero"/></g></g></g><path stroke-linecap="butt" transform="matrix(0.175035, -0.729289, 0.729289, 0.175035, 171.821638, 53.507557)" fill="none" stroke-linejoin="miter" d="M -0.000922535 3.501386 L 30.453843 3.497941 " stroke="#000000" stroke-width="7" stroke-opacity="1" stroke-miterlimit="4"/><path stroke-linecap="butt" transform="matrix(0.17213, 0.72998, -0.72998, 0.17213, 160.171312, 2.564296)" fill="none" stroke-linejoin="miter" d="M 2.033166 95.734876 C 174.352249 -27.244148 336.220161 -27.245383 487.625571 95.73385 " stroke="#000000" stroke-width="7" stroke-opacity="1" stroke-miterlimit="4"/><path stroke-linecap="butt" transform="matrix(0, -0.75, 0.75, 0, 104.15167, 37.497467)" fill="none" stroke-linejoin="miter" d="M 0.00183097 3.500899 L 34.132042 3.500899 " stroke="#000000" stroke-width="7" stroke-opacity="1" stroke-miterlimit="4"/><path stroke-linecap="butt" transform="matrix(-0.75, 0.000100869, -0.000100869, -0.75, 107.063397, 40.121804)" fill="none" stroke-linejoin="miter" d="M 0.000725778 3.500947 L 31.656978 3.499996 " stroke="#000000" stroke-width="7" stroke-opacity="1" stroke-miterlimit="4"/></svg>