<svg xmlns="http://www.w3.org/2000/svg" xmlns:xlink="http://www.w3.org/1999/xlink" width="500" zoomAndPan="magnify" viewBox="0 0 375 374.999991" height="500" preserveAspectRatio="xMidYMid meet" version="1.0"><defs><clipPath id="9c1a525fe7"><path d="M 170 253 L 269 253 L 269 351 L 170 351 Z M 170 253 " clip-rule="nonzero"/></clipPath><clipPath id="692477ead5"><path d="M 254.230469 361.515625 L 159.789062 336.949219 L 184.355469 242.503906 L 278.796875 267.074219 Z M 254.230469 361.515625 " clip-rule="nonzero"/></clipPath><clipPath id="f2bbe02565"><path d="M 207.011719 349.230469 C 233.089844 356.015625 259.730469 340.375 266.515625 314.292969 C 273.300781 288.214844 257.65625 261.574219 231.578125 254.789062 C 205.496094 248.003906 178.855469 263.648438 172.074219 289.726562 C 165.289062 315.804688 180.929688 342.445312 207.011719 349.230469 Z M 207.011719 349.230469 " clip-rule="nonzero"/></clipPath><clipPath id="f9d7cc48a5"><path d="M 170 253 L 269 253 L 269 351 L 170 351 Z M 170 253 " clip-rule="nonzero"/></clipPath><clipPath id="97b52c5194"><path d="M 254.230469 361.515625 L 159.871094 336.96875 L 184.417969 242.609375 L 278.777344 267.15625 Z M 254.230469 361.515625 " clip-rule="nonzero"/></clipPath><clipPath id="f43e1fdb60"><path d="M 254.230469 361.515625 L 159.792969 336.949219 L 184.359375 242.507812 L 278.796875 267.074219 Z M 254.230469 361.515625 " clip-rule="nonzero"/></clipPath><clipPath id="d6e914c976"><path d="M 207.011719 349.230469 C 233.089844 356.015625 259.730469 340.375 266.515625 314.296875 C 273.296875 288.21875 257.65625 261.578125 231.578125 254.792969 C 205.5 248.007812 178.859375 263.648438 172.074219 289.730469 C 165.292969 315.808594 180.933594 342.449219 207.011719 349.230469 Z M 207.011719 349.230469 " clip-rule="nonzero"/></clipPath><clipPath id="e66075619c"><path d="M 194 297 L 206 297 L 206 309 L 194 309 Z M 194 297 " clip-rule="nonzero"/></clipPath><clipPath id="1ff34aa5e3"><path d="M 203.871094 309.808594 L 192.808594 306.929688 L 195.6875 295.871094 L 206.75 298.746094 Z M 203.871094 309.808594 " clip-rule="nonzero"/></clipPath><clipPath id="e929a425ce"><path d="M 198.339844 308.371094 C 201.394531 309.164062 204.515625 307.332031 205.308594 304.277344 C 206.105469 301.222656 204.273438 298.101562 201.21875 297.308594 C 198.164062 296.511719 195.042969 298.34375 194.246094 301.398438 C 193.453125 304.453125 195.285156 307.574219 198.339844 308.371094 Z M 198.339844 308.371094 " clip-rule="nonzero"/></clipPath><clipPath id="0b8b19be98"><path d="M 131.667969 144.949219 L 137.515625 144.949219 L 137.515625 150.800781 L 131.667969 150.800781 Z M 131.667969 144.949219 " clip-rule="nonzero"/></clipPath><clipPath id="584fcc3305"><path d="M 134.59375 144.949219 C 132.976562 144.949219 131.667969 146.257812 131.667969 147.875 C 131.667969 149.488281 132.976562 150.800781 134.59375 150.800781 C 136.207031 150.800781 137.515625 149.488281 137.515625 147.875 C 137.515625 146.257812 136.207031 144.949219 134.59375 144.949219 Z M 134.59375 144.949219 " clip-rule="nonzero"/></clipPath><clipPath id="2c3590f61a"><path d="M 218.152344 249.605469 L 222.730469 249.605469 L 222.730469 254.183594 L 218.152344 254.183594 Z M 218.152344 249.605469 " clip-rule="nonzero"/></clipPath><clipPath id="2625b1f1b2"><path d="M 220.441406 249.605469 C 219.175781 249.605469 218.152344 250.632812 218.152344 251.894531 C 218.152344 253.160156 219.175781 254.183594 220.441406 254.183594 C 221.707031 254.183594 222.730469 253.160156 222.730469 251.894531 C 222.730469 250.632812 221.707031 249.605469 220.441406 249.605469 Z M 220.441406 249.605469 " clip-rule="nonzero"/></clipPath></defs><path stroke-linecap="butt" transform="matrix(-0.00102813, 0.749999, -0.749999, -0.00102813, 137.215133, 147.879907)" fill="none" stroke-linejoin="miter" d="M -0.00174431 3.500392 C 100.852519 3.497553 201.70158 3.49993 302.550642 3.502307 " stroke="#000000" stroke-width="7" stroke-opacity="1" stroke-miterlimit="4"/><path stroke-linecap="butt" transform="matrix(0.75, 0, 0, 0.75, 134.592372, 369.538452)" fill="none" stroke-linejoin="miter" d="M 0.00183672 3.500815 L 49.809132 3.500815 " stroke="#000000" stroke-width="7" stroke-opacity="1" stroke-miterlimit="4"/><path stroke-linecap="butt" transform="matrix(0.227999, -0.714504, 0.714504, 0.227999, 96.126788, 347.37525)" fill="none" stroke-linejoin="miter" d="M 3.353075 119.21415 C 49.280657 -35.070515 105.389374 -35.070173 171.677643 119.210213 " stroke="#000000" stroke-width="7" stroke-opacity="1" stroke-miterlimit="4"/><g clip-path="url(#9c1a525fe7)"><g clip-path="url(#692477ead5)"><g clip-path="url(#f2bbe02565)"><path fill="#ffffff" d="M 254.230469 361.515625 L 159.789062 336.949219 L 184.355469 242.503906 L 278.796875 267.074219 Z M 254.230469 361.515625 " fill-opacity="1" fill-rule="nonzero"/></g></g></g><g clip-path="url(#f9d7cc48a5)"><g clip-path="url(#97b52c5194)"><g clip-path="url(#f43e1fdb60)"><g clip-path="url(#d6e914c976)"><path stroke-linecap="butt" transform="matrix(-0.725844, -0.188814, 0.188814, -0.725844, 254.231354, 361.514976)" fill="none" stroke-linejoin="miter" d="M 65.055236 0.00159923 C 29.126739 -0.000259081 0.0000495543 29.12468 -0.00180876 65.053177 C 0.00137351 100.980364 29.126312 130.107053 65.05481 130.108911 C 100.983308 130.110769 130.109997 100.985831 130.110544 65.052293 C 130.107361 29.125106 100.982423 -0.00158303 65.055236 0.00159923 Z M 65.055236 0.00159923 " stroke="#000000" stroke-width="14" stroke-opacity="1" stroke-miterlimit="4"/></g></g></g></g><g clip-path="url(#e66075619c)"><g clip-path="url(#1ff34aa5e3)"><g clip-path="url(#e929a425ce)"><path fill="#000000" d="M 203.871094 309.808594 L 192.808594 306.929688 L 195.6875 295.871094 L 206.75 298.746094 Z M 203.871094 309.808594 " fill-opacity="1" fill-rule="nonzero"/></g></g></g><path stroke-linecap="butt" transform="matrix(-0.725844, -0.188814, 0.188814, -0.725844, 171.411848, 292.266924)" fill="none" stroke-linejoin="miter" d="M -0.00199437 3.500393 L 30.683929 3.499061 " stroke="#000000" stroke-width="7" stroke-opacity="1" stroke-miterlimit="4"/><path stroke-linecap="butt" transform="matrix(0.478418, 0.577595, -0.577595, 0.478418, 157.216401, 126.917644)" fill="none" stroke-linejoin="miter" d="M 2.00628 41.383329 C 74.054789 -9.128208 134.083013 -9.128474 182.102297 41.385165 " stroke="#000000" stroke-width="7" stroke-opacity="1" stroke-miterlimit="4"/><g clip-path="url(#0b8b19be98)"><g clip-path="url(#584fcc3305)"><path fill="#222222" d="M 131.667969 144.949219 L 137.515625 144.949219 L 137.515625 150.800781 L 131.667969 150.800781 Z M 131.667969 144.949219 " fill-opacity="1" fill-rule="nonzero"/></g></g><g clip-path="url(#2c3590f61a)"><g clip-path="url(#2625b1f1b2)"><path fill="#222222" d="M 218.152344 249.605469 L 222.730469 249.605469 L 222.730469 254.183594 L 218.152344 254.183594 Z M 218.152344 249.605469 " fill-opacity="1" fill-rule="nonzero"/></g></g></svg>