<svg xmlns="http://www.w3.org/2000/svg" xmlns:xlink="http://www.w3.org/1999/xlink" width="500" zoomAndPan="magnify" viewBox="0 0 375 374.999991" height="500" preserveAspectRatio="xMidYMid meet" version="1.0"><defs><clipPath id="a6e9a0131f"><path d="M 273.488281 176.507812 L 371.074219 176.507812 L 371.074219 274.09375 L 273.488281 274.09375 Z M 273.488281 176.507812 " clip-rule="nonzero"/></clipPath><clipPath id="b2e9bb29e0"><path d="M 371.074219 225.300781 C 371.074219 198.355469 349.226562 176.507812 322.28125 176.507812 C 295.332031 176.507812 273.488281 198.355469 273.488281 225.300781 C 273.488281 252.25 295.332031 274.09375 322.28125 274.09375 C 349.226562 274.09375 371.074219 252.25 371.074219 225.300781 Z M 371.074219 225.300781 " clip-rule="nonzero"/></clipPath><clipPath id="d08c09ab4a"><path d="M 273.574219 176.507812 L 371.074219 176.507812 L 371.074219 274.007812 L 273.574219 274.007812 Z M 273.574219 176.507812 " clip-rule="nonzero"/></clipPath><clipPath id="5487f55b57"><path d="M 371.074219 225.300781 C 371.074219 198.351562 349.230469 176.507812 322.28125 176.507812 C 295.335938 176.507812 273.492188 198.351562 273.492188 225.300781 C 273.492188 252.246094 295.335938 274.089844 322.28125 274.089844 C 349.230469 274.089844 371.074219 252.246094 371.074219 225.300781 Z M 371.074219 225.300781 " clip-rule="nonzero"/></clipPath><clipPath id="db7c3b274d"><path d="M 322.28125 238.265625 L 333.710938 238.265625 L 333.710938 249.695312 L 322.28125 249.695312 Z M 322.28125 238.265625 " clip-rule="nonzero"/></clipPath><clipPath id="2bf1a3b5d0"><path d="M 333.710938 243.980469 C 333.710938 240.824219 331.152344 238.265625 327.996094 238.265625 C 324.839844 238.265625 322.28125 240.824219 322.28125 243.980469 C 322.28125 247.136719 324.839844 249.695312 327.996094 249.695312 C 331.152344 249.695312 333.710938 247.136719 333.710938 243.980469 Z M 333.710938 243.980469 " clip-rule="nonzero"/></clipPath><clipPath id="3acdababd1"><path d="M 131.667969 144.949219 L 137.515625 144.949219 L 137.515625 150.800781 L 131.667969 150.800781 Z M 131.667969 144.949219 " clip-rule="nonzero"/></clipPath><clipPath id="b95ac7a834"><path d="M 134.59375 144.949219 C 132.976562 144.949219 131.667969 146.257812 131.667969 147.875 C 131.667969 149.488281 132.976562 150.800781 134.59375 150.800781 C 136.207031 150.800781 137.515625 149.488281 137.515625 147.875 C 137.515625 146.257812 136.207031 144.949219 134.59375 144.949219 Z M 134.59375 144.949219 " clip-rule="nonzero"/></clipPath><clipPath id="2ad179a91d"><path d="M 271.203125 234.519531 L 275.777344 234.519531 L 275.777344 239.097656 L 271.203125 239.097656 Z M 271.203125 234.519531 " clip-rule="nonzero"/></clipPath><clipPath id="c8a1d9eaaa"><path d="M 273.488281 234.519531 C 272.226562 234.519531 271.203125 235.546875 271.203125 236.808594 C 271.203125 238.074219 272.226562 239.097656 273.488281 239.097656 C 274.753906 239.097656 275.777344 238.074219 275.777344 236.808594 C 275.777344 235.546875 274.753906 234.519531 273.488281 234.519531 Z M 273.488281 234.519531 " clip-rule="nonzero"/></clipPath></defs><path stroke-linecap="butt" transform="matrix(-0.00102813, 0.749999, -0.749999, -0.00102813, 137.215133, 147.879907)" fill="none" stroke-linejoin="miter" d="M -0.00174431 3.500392 C 100.852519 3.497553 201.70158 3.49993 302.550642 3.502307 " stroke="#000000" stroke-width="7" stroke-opacity="1" stroke-miterlimit="4"/><path stroke-linecap="butt" transform="matrix(0.75, 0, 0, 0.75, 134.592372, 369.538452)" fill="none" stroke-linejoin="miter" d="M 0.00183672 3.500815 L 49.809132 3.500815 " stroke="#000000" stroke-width="7" stroke-opacity="1" stroke-miterlimit="4"/><path stroke-linecap="butt" transform="matrix(0.450074, -0.599945, 0.599945, 0.450074, 169.848334, 370.587691)" fill="none" stroke-linejoin="miter" d="M -0.000324437 3.502041 L 225.610112 3.498236 " stroke="#000000" stroke-width="7" stroke-opacity="1" stroke-miterlimit="4"/><g clip-path="url(#a6e9a0131f)"><g clip-path="url(#b2e9bb29e0)"><path fill="#ffffff" d="M 371.074219 176.507812 L 371.074219 274.09375 L 273.488281 274.09375 L 273.488281 176.507812 Z M 371.074219 176.507812 " fill-opacity="1" fill-rule="nonzero"/></g></g><g clip-path="url(#d08c09ab4a)"><g clip-path="url(#5487f55b57)"><path stroke-linecap="butt" transform="matrix(0, 0.75, -0.75, 0, 371.073643, 176.508783)" fill="none" stroke-linejoin="miter" d="M 65.056002 -0.00076829 C 29.123708 -0.00076829 -0.00129375 29.124234 -0.00129375 65.056528 C -0.00129375 100.983613 29.123708 130.108615 65.056002 130.108615 C 100.983088 130.108615 130.10809 100.983613 130.10809 65.056528 C 130.10809 29.124234 100.983088 -0.00076829 65.056002 -0.00076829 Z M 65.056002 -0.00076829 " stroke="#000000" stroke-width="14" stroke-opacity="1" stroke-miterlimit="4"/></g></g><g clip-path="url(#db7c3b274d)"><g clip-path="url(#2bf1a3b5d0)"><path fill="#000000" d="M 333.710938 238.265625 L 333.710938 249.695312 L 322.28125 249.695312 L 322.28125 238.265625 Z M 333.710938 238.265625 " fill-opacity="1" fill-rule="nonzero"/></g></g><path stroke-linecap="butt" transform="matrix(0, 0.75, -0.75, 0, 324.90593, 274.094161)" fill="none" stroke-linejoin="miter" d="M -0.000548268 3.499574 L 30.681745 3.499574 " stroke="#000000" stroke-width="7" stroke-opacity="1" stroke-miterlimit="4"/><path stroke-linecap="butt" transform="matrix(0.63203, 0.40378, -0.40378, 0.63203, 137.988058, 141.517887)" fill="none" stroke-linejoin="miter" d="M 0.398334 9.803769 C 73.816821 1.397689 147.234663 1.397479 220.65186 9.803141 " stroke="#000000" stroke-width="7" stroke-opacity="1" stroke-miterlimit="4"/><g clip-path="url(#3acdababd1)"><g clip-path="url(#b95ac7a834)"><path fill="#222222" d="M 131.667969 144.949219 L 137.515625 144.949219 L 137.515625 150.800781 L 131.667969 150.800781 Z M 131.667969 144.949219 " fill-opacity="1" fill-rule="nonzero"/></g></g><g clip-path="url(#2ad179a91d)"><g clip-path="url(#c8a1d9eaaa)"><path fill="#222222" d="M 271.203125 234.519531 L 275.777344 234.519531 L 275.777344 239.097656 L 271.203125 239.097656 Z M 271.203125 234.519531 " fill-opacity="1" fill-rule="nonzero"/></g></g><path stroke-linecap="butt" transform="matrix(-0.206084, 0.721131, -0.721131, -0.206084, 187.396749, 356.578777)" fill="none" stroke-linejoin="miter" d="M 0.00304655 3.501484 L 22.613169 3.502288 " stroke="#000000" stroke-width="7" stroke-opacity="1" stroke-miterlimit="4"/><path stroke-linecap="butt" transform="matrix(0.10249, 0.742964, -0.742964, 0.10249, 187.831178, 355.385689)" fill="none" stroke-linejoin="miter" d="M 0.00217365 3.50075 L 22.10541 3.50038 " stroke="#000000" stroke-width="7" stroke-opacity="1" stroke-miterlimit="4"/></svg>