<svg xmlns="http://www.w3.org/2000/svg" xmlns:xlink="http://www.w3.org/1999/xlink" width="500" zoomAndPan="magnify" viewBox="0 0 375 374.999991" height="500" preserveAspectRatio="xMidYMid meet" version="1.0"><defs><clipPath id="40bae7b090"><path d="M 277.410156 264.539062 L 374.996094 264.539062 L 374.996094 362.121094 L 277.410156 362.121094 Z M 277.410156 264.539062 " clip-rule="nonzero"/></clipPath><clipPath id="10b267873e"><path d="M 374.996094 313.328125 C 374.996094 286.382812 353.152344 264.539062 326.203125 264.539062 C 299.257812 264.539062 277.410156 286.382812 277.410156 313.328125 C 277.410156 340.277344 299.257812 362.121094 326.203125 362.121094 C 353.152344 362.121094 374.996094 340.277344 374.996094 313.328125 Z M 374.996094 313.328125 " clip-rule="nonzero"/></clipPath><clipPath id="ff422145e8"><path d="M 277.496094 264.539062 L 374.996094 264.539062 L 374.996094 362.039062 L 277.496094 362.039062 Z M 277.496094 264.539062 " clip-rule="nonzero"/></clipPath><clipPath id="0f84aed04a"><path d="M 374.996094 313.328125 C 374.996094 286.382812 353.152344 264.539062 326.207031 264.539062 C 299.257812 264.539062 277.414062 286.382812 277.414062 313.328125 C 277.414062 340.273438 299.257812 362.121094 326.207031 362.121094 C 353.152344 362.121094 374.996094 340.273438 374.996094 313.328125 Z M 374.996094 313.328125 " clip-rule="nonzero"/></clipPath><clipPath id="ae8abfbde9"><path d="M 326.203125 326.292969 L 337.632812 326.292969 L 337.632812 337.722656 L 326.203125 337.722656 Z M 326.203125 326.292969 " clip-rule="nonzero"/></clipPath><clipPath id="2d92315498"><path d="M 337.632812 332.007812 C 337.632812 328.851562 335.074219 326.292969 331.917969 326.292969 C 328.761719 326.292969 326.203125 328.851562 326.203125 332.007812 C 326.203125 335.164062 328.761719 337.722656 331.917969 337.722656 C 335.074219 337.722656 337.632812 335.164062 337.632812 332.007812 Z M 337.632812 332.007812 " clip-rule="nonzero"/></clipPath><clipPath id="cf4646c788"><path d="M 49.921875 334.574219 L 55.773438 334.574219 L 55.773438 340.425781 L 49.921875 340.425781 Z M 49.921875 334.574219 " clip-rule="nonzero"/></clipPath><clipPath id="4ddc0c002c"><path d="M 52.847656 334.574219 C 51.234375 334.574219 49.921875 335.882812 49.921875 337.5 C 49.921875 339.117188 51.234375 340.425781 52.847656 340.425781 C 54.464844 340.425781 55.773438 339.117188 55.773438 337.5 C 55.773438 335.882812 54.464844 334.574219 52.847656 334.574219 Z M 52.847656 334.574219 " clip-rule="nonzero"/></clipPath><clipPath id="446a695d35"><path d="M 196.867188 370.085938 L 201.78125 370.085938 L 201.78125 375 L 196.867188 375 Z M 196.867188 370.085938 " clip-rule="nonzero"/></clipPath><clipPath id="a56fca1073"><path d="M 199.324219 370.085938 C 197.964844 370.085938 196.867188 371.1875 196.867188 372.542969 C 196.867188 373.898438 197.964844 375 199.324219 375 C 200.679688 375 201.78125 373.898438 201.78125 372.542969 C 201.78125 371.1875 200.679688 370.085938 199.324219 370.085938 Z M 199.324219 370.085938 " clip-rule="nonzero"/></clipPath></defs><path stroke-linecap="butt" transform="matrix(-0.747673, 0.059035, -0.059035, -0.747673, 277.620308, 322.385487)" fill="none" stroke-linejoin="miter" d="M -0.000406807 3.498765 C 98.816447 3.500932 197.638902 3.498317 296.455756 3.500484 " stroke="#000000" stroke-width="7" stroke-opacity="1" stroke-miterlimit="4"/><path stroke-linecap="butt" transform="matrix(0.302845, 0.686138, -0.686138, 0.302845, 54.050372, 335.17114)" fill="none" stroke-linejoin="miter" d="M 2.191111 2.725675 C 29.820644 24.934844 46.659589 24.937654 52.710051 2.72934 " stroke="#000000" stroke-width="7" stroke-opacity="1" stroke-miterlimit="4"/><path stroke-linecap="butt" transform="matrix(0.624408, -0.415469, 0.415469, 0.624408, 166.400955, 327.489588)" fill="none" stroke-linejoin="miter" d="M 3.552564 73.90447 C 1.760045 -19.969763 46.157751 -19.968872 136.760124 73.904241 " stroke="#000000" stroke-width="7" stroke-opacity="1" stroke-miterlimit="4"/><g clip-path="url(#40bae7b090)"><g clip-path="url(#10b267873e)"><path fill="#ffffff" d="M 374.996094 264.539062 L 374.996094 362.121094 L 277.410156 362.121094 L 277.410156 264.539062 Z M 374.996094 264.539062 " fill-opacity="1" fill-rule="nonzero"/></g></g><g clip-path="url(#ff422145e8)"><g clip-path="url(#0f84aed04a)"><path stroke-linecap="butt" transform="matrix(0, 0.75, -0.75, 0, 374.996581, 264.53723)" fill="none" stroke-linejoin="miter" d="M 65.054531 0.0006503 C 29.127445 0.0006503 0.00244356 29.125652 0.00244356 65.052738 C 0.00244356 100.985032 29.127445 130.110034 65.054531 130.110034 C 100.981617 130.110034 130.111827 100.985032 130.111827 65.052738 C 130.111827 29.125652 100.981617 0.0006503 65.054531 0.0006503 Z M 65.054531 0.0006503 " stroke="#000000" stroke-width="14" stroke-opacity="1" stroke-miterlimit="4"/></g></g><g clip-path="url(#ae8abfbde9)"><g clip-path="url(#2d92315498)"><path fill="#000000" d="M 337.632812 326.292969 L 337.632812 337.722656 L 326.203125 337.722656 L 326.203125 326.292969 Z M 337.632812 326.292969 " fill-opacity="1" fill-rule="nonzero"/></g></g><path stroke-linecap="butt" transform="matrix(0.000000001309, 0.75, -0.75, 0.000000001309, 328.827199, 362.12772)" fill="none" stroke-linejoin="miter" d="M 0.00158137 3.498765 L 17.168249 3.498765 " stroke="#000000" stroke-width="7" stroke-opacity="1" stroke-miterlimit="4"/><g clip-path="url(#cf4646c788)"><g clip-path="url(#4ddc0c002c)"><path fill="#222222" d="M 49.921875 334.574219 L 55.773438 334.574219 L 55.773438 340.425781 L 49.921875 340.425781 Z M 49.921875 334.574219 " fill-opacity="1" fill-rule="nonzero"/></g></g><g clip-path="url(#446a695d35)"><g clip-path="url(#a56fca1073)"><path fill="#222222" d="M 196.867188 370.085938 L 201.78125 370.085938 L 201.78125 375 L 196.867188 375 Z M 196.867188 370.085938 " fill-opacity="1" fill-rule="nonzero"/></g></g><path stroke-linecap="butt" transform="matrix(0.75, 0, 0, 0.75, 196.866599, 369.538452)" fill="none" stroke-linejoin="miter" d="M 0.00078497 3.500815 L 26.360162 3.500815 " stroke="#000000" stroke-width="7" stroke-opacity="1" stroke-miterlimit="4"/></svg>