<svg xmlns="http://www.w3.org/2000/svg" xmlns:xlink="http://www.w3.org/1999/xlink" width="500" zoomAndPan="magnify" viewBox="0 0 375 374.999991" height="500" preserveAspectRatio="xMidYMid meet" version="1.0"><defs><clipPath id="ee989fde81"><path d="M 157.359375 37.5 L 254.945312 37.5 L 254.945312 135.085938 L 157.359375 135.085938 Z M 157.359375 37.5 " clip-rule="nonzero"/></clipPath><clipPath id="49f857c0d3"><path d="M 206.152344 37.5 C 179.207031 37.5 157.359375 59.34375 157.359375 86.292969 C 157.359375 113.238281 179.207031 135.085938 206.152344 135.085938 C 233.101562 135.085938 254.945312 113.238281 254.945312 86.292969 C 254.945312 59.34375 233.101562 37.5 206.152344 37.5 Z M 206.152344 37.5 " clip-rule="nonzero"/></clipPath><clipPath id="5db8ad4e19"><path d="M 157.359375 37.5 L 254.859375 37.5 L 254.859375 135 L 157.359375 135 Z M 157.359375 37.5 " clip-rule="nonzero"/></clipPath><clipPath id="dc26fdb7c7"><path d="M 206.152344 37.5 C 179.203125 37.5 157.359375 59.34375 157.359375 86.289062 C 157.359375 113.238281 179.203125 135.082031 206.152344 135.082031 C 233.097656 135.082031 254.941406 113.238281 254.941406 86.289062 C 254.941406 59.34375 233.097656 37.5 206.152344 37.5 Z M 206.152344 37.5 " clip-rule="nonzero"/></clipPath><clipPath id="1fc8a0ff0f"><path d="M 219.117188 74.863281 L 230.546875 74.863281 L 230.546875 86.292969 L 219.117188 86.292969 Z M 219.117188 74.863281 " clip-rule="nonzero"/></clipPath><clipPath id="59c86451a3"><path d="M 224.832031 74.863281 C 221.675781 74.863281 219.117188 77.421875 219.117188 80.578125 C 219.117188 83.734375 221.675781 86.292969 224.832031 86.292969 C 227.988281 86.292969 230.546875 83.734375 230.546875 80.578125 C 230.546875 77.421875 227.988281 74.863281 224.832031 74.863281 Z M 224.832031 74.863281 " clip-rule="nonzero"/></clipPath><clipPath id="ea78a9e709"><path d="M 21.5 369.042969 L 26.90625 369.042969 L 26.90625 374.453125 L 21.5 374.453125 Z M 21.5 369.042969 " clip-rule="nonzero"/></clipPath><clipPath id="94ddd8518e"><path d="M 24.203125 369.042969 C 22.710938 369.042969 21.5 370.253906 21.5 371.75 C 21.5 373.242188 22.710938 374.453125 24.203125 374.453125 C 25.695312 374.453125 26.90625 373.242188 26.90625 371.75 C 26.90625 370.253906 25.695312 369.042969 24.203125 369.042969 Z M 24.203125 369.042969 " clip-rule="nonzero"/></clipPath></defs><path stroke-linecap="butt" transform="matrix(0, 0.75, -0.75, 0, 209.839268, 125.317257)" fill="none" stroke-linejoin="miter" d="M -0.00113376 3.499232 L 177.191586 3.499232 " stroke="#000000" stroke-width="7" stroke-opacity="1" stroke-miterlimit="4"/><path stroke-linecap="butt" transform="matrix(0.75, 0, 0, 0.75, 337.499982, 369.202154)" fill="none" stroke-linejoin="miter" d="M 0.00002355 3.501295 L 49.807318 3.501295 " stroke="#000000" stroke-width="7" stroke-opacity="1" stroke-miterlimit="4"/><g clip-path="url(#ee989fde81)"><g clip-path="url(#49f857c0d3)"><path fill="#ffffff" d="M 157.359375 37.5 L 254.945312 37.5 L 254.945312 135.085938 L 157.359375 135.085938 Z M 157.359375 37.5 " fill-opacity="1" fill-rule="nonzero"/></g></g><g clip-path="url(#5db8ad4e19)"><g clip-path="url(#dc26fdb7c7)"><path stroke-linecap="butt" transform="matrix(0.75, 0, 0, 0.75, 157.360557, 37.499998)" fill="none" stroke-linejoin="miter" d="M 65.055721 0.00000328333 C 29.123426 0.00000328333 -0.00157542 29.125005 -0.00157542 65.052091 C -0.00157542 100.984385 29.123426 130.109387 65.055721 130.109387 C 100.982806 130.109387 130.107808 100.984385 130.107808 65.052091 C 130.107808 29.125005 100.982806 0.00000328333 65.055721 0.00000328333 Z M 65.055721 0.00000328333 " stroke="#000000" stroke-width="14" stroke-opacity="1" stroke-miterlimit="4"/></g></g><g clip-path="url(#1fc8a0ff0f)"><g clip-path="url(#59c86451a3)"><path fill="#000000" d="M 219.117188 74.863281 L 230.546875 74.863281 L 230.546875 86.292969 L 219.117188 86.292969 Z M 219.117188 74.863281 " fill-opacity="1" fill-rule="nonzero"/></g></g><path stroke-linecap="butt" transform="matrix(0.75, 0, 0, 0.75, 254.945964, 83.667703)" fill="none" stroke-linejoin="miter" d="M -0.000868345 3.500355 L 30.681425 3.500355 " stroke="#000000" stroke-width="7" stroke-opacity="1" stroke-miterlimit="4"/><path stroke-linecap="butt" transform="matrix(0.75, -0.000000000000000279, 0.000000000000000279, 0.75, 204.591349, 255.584926)" fill="none" stroke-linejoin="miter" d="M -0.00200655 3.501349 L 177.211547 3.501349 " stroke="#000000" stroke-width="7" stroke-opacity="1" stroke-miterlimit="4"/><path stroke-linecap="butt" transform="matrix(0.75, 0, 0, 0.75, 22.930055, 369.202154)" fill="none" stroke-linejoin="miter" d="M -0.000490526 3.501295 L 49.806804 3.501295 " stroke="#000000" stroke-width="7" stroke-opacity="1" stroke-miterlimit="4"/><g clip-path="url(#ea78a9e709)"><g clip-path="url(#94ddd8518e)"><path fill="#000000" d="M 21.5 369.042969 L 26.90625 369.042969 L 26.90625 374.453125 L 21.5 374.453125 Z M 21.5 369.042969 " fill-opacity="1" fill-rule="nonzero"/></g></g><path stroke-linecap="butt" transform="matrix(0.0147637, 0.749855, -0.749855, 0.0147637, 337.834319, 258.159768)" fill="none" stroke-linejoin="miter" d="M -0.000642009 3.498508 L 155.019003 3.497984 " stroke="#000000" stroke-width="7" stroke-opacity="1" stroke-miterlimit="4"/><path stroke-linecap="butt" transform="matrix(0.75, -0.000000000000000093, 0.000000000000000093, 0.75, 83.088016, 145.489999)" fill="none" stroke-linejoin="miter" d="M 0.00243721 3.49771 L 324.007667 3.49771 " stroke="#000000" stroke-width="7" stroke-opacity="1" stroke-miterlimit="4"/><path stroke-linecap="butt" transform="matrix(-0.637459, 0.395154, -0.395154, -0.637459, 216.584301, 270.088283)" fill="none" stroke-linejoin="miter" d="M 1.171973 19.358835 C 60.753599 -1.786903 155.654977 -1.785901 285.867252 19.356354 " stroke="#000000" stroke-width="7" stroke-opacity="1" stroke-miterlimit="4"/></svg>